G04 #@! TF.GenerationSoftware,KiCad,Pcbnew,6.0.2-378541a8eb~116~ubuntu20.04.1*
G04 #@! TF.CreationDate,2022-03-04T16:59:05+01:00*
G04 #@! TF.ProjectId,power-ice,706f7765-722d-4696-9365-2e6b69636164,rev?*
G04 #@! TF.SameCoordinates,Original*
G04 #@! TF.FileFunction,Soldermask,Top*
G04 #@! TF.FilePolarity,Negative*
%FSLAX46Y46*%
G04 Gerber Fmt 4.6, Leading zero omitted, Abs format (unit mm)*
G04 Created by KiCad (PCBNEW 6.0.2-378541a8eb~116~ubuntu20.04.1) date 2022-03-04 16:59:05*
%MOMM*%
%LPD*%
G01*
G04 APERTURE LIST*
G04 Aperture macros list*
%AMRoundRect*
0 Rectangle with rounded corners*
0 $1 Rounding radius*
0 $2 $3 $4 $5 $6 $7 $8 $9 X,Y pos of 4 corners*
0 Add a 4 corners polygon primitive as box body*
4,1,4,$2,$3,$4,$5,$6,$7,$8,$9,$2,$3,0*
0 Add four circle primitives for the rounded corners*
1,1,$1+$1,$2,$3*
1,1,$1+$1,$4,$5*
1,1,$1+$1,$6,$7*
1,1,$1+$1,$8,$9*
0 Add four rect primitives between the rounded corners*
20,1,$1+$1,$2,$3,$4,$5,0*
20,1,$1+$1,$4,$5,$6,$7,0*
20,1,$1+$1,$6,$7,$8,$9,0*
20,1,$1+$1,$8,$9,$2,$3,0*%
G04 Aperture macros list end*
%ADD10RoundRect,0.051000X-0.952500X-1.000000X0.952500X-1.000000X0.952500X1.000000X-0.952500X1.000000X0*%
%ADD11O,2.007000X2.102000*%
%ADD12RoundRect,0.051000X-0.850000X-0.850000X0.850000X-0.850000X0.850000X0.850000X-0.850000X0.850000X0*%
%ADD13RoundRect,0.301000X0.475000X-0.250000X0.475000X0.250000X-0.475000X0.250000X-0.475000X-0.250000X0*%
%ADD14RoundRect,0.301000X-0.450000X0.262500X-0.450000X-0.262500X0.450000X-0.262500X0.450000X0.262500X0*%
%ADD15RoundRect,0.301000X-0.250000X-0.475000X0.250000X-0.475000X0.250000X0.475000X-0.250000X0.475000X0*%
%ADD16RoundRect,0.301000X0.450000X-0.262500X0.450000X0.262500X-0.450000X0.262500X-0.450000X-0.262500X0*%
%ADD17RoundRect,0.051000X-0.800000X-0.800000X0.800000X-0.800000X0.800000X0.800000X-0.800000X0.800000X0*%
%ADD18O,1.702000X1.702000*%
%ADD19C,1.502000*%
%ADD20O,1.502000X1.502000*%
%ADD21RoundRect,0.301000X0.262500X0.450000X-0.262500X0.450000X-0.262500X-0.450000X0.262500X-0.450000X0*%
%ADD22RoundRect,0.301000X-0.262500X-0.450000X0.262500X-0.450000X0.262500X0.450000X-0.262500X0.450000X0*%
%ADD23RoundRect,0.051000X0.000000X-1.272792X1.272792X0.000000X0.000000X1.272792X-1.272792X0.000000X0*%
%ADD24C,1.902000*%
%ADD25O,1.802000X1.802000*%
%ADD26RoundRect,0.051000X0.850000X-0.850000X0.850000X0.850000X-0.850000X0.850000X-0.850000X-0.850000X0*%
%ADD27RoundRect,0.051000X-1.272792X0.000000X0.000000X-1.272792X1.272792X0.000000X0.000000X1.272792X0*%
%ADD28RoundRect,0.051000X-0.900000X-0.900000X0.900000X-0.900000X0.900000X0.900000X-0.900000X0.900000X0*%
%ADD29RoundRect,0.301000X-1.750000X-1.750000X1.750000X-1.750000X1.750000X1.750000X-1.750000X1.750000X0*%
%ADD30RoundRect,0.301000X0.250000X0.475000X-0.250000X0.475000X-0.250000X-0.475000X0.250000X-0.475000X0*%
%ADD31RoundRect,0.301000X-0.475000X0.250000X-0.475000X-0.250000X0.475000X-0.250000X0.475000X0.250000X0*%
G04 APERTURE END LIST*
D10*
X165700000Y-30600000D03*
D11*
X168240000Y-30600000D03*
X170780000Y-30600000D03*
D12*
X120250000Y-61700000D03*
D13*
X102300000Y-30050000D03*
X102300000Y-28150000D03*
D14*
X152287500Y-64875000D03*
X152287500Y-66700000D03*
D15*
X176587500Y-53900000D03*
X178487500Y-53900000D03*
D16*
X98250000Y-66300000D03*
X98250000Y-64475000D03*
D17*
X95600000Y-49400000D03*
D18*
X95600000Y-51940000D03*
X95600000Y-54480000D03*
X95600000Y-57020000D03*
X103220000Y-57020000D03*
X103220000Y-54480000D03*
X103220000Y-51940000D03*
X103220000Y-49400000D03*
D15*
X106900000Y-46900000D03*
X108800000Y-46900000D03*
D19*
X155600000Y-45000000D03*
D20*
X157500000Y-45000000D03*
D21*
X194100000Y-67200000D03*
X192275000Y-67200000D03*
D16*
X141487500Y-63812500D03*
X141487500Y-61987500D03*
D22*
X147975000Y-65100000D03*
X149800000Y-65100000D03*
D16*
X162887500Y-63312500D03*
X162887500Y-61487500D03*
D15*
X110150000Y-65900000D03*
X112050000Y-65900000D03*
X154737500Y-52200000D03*
X156637500Y-52200000D03*
X196937500Y-55700000D03*
X198837500Y-55700000D03*
D22*
X111500000Y-54200000D03*
X113325000Y-54200000D03*
D23*
X132103949Y-46296051D03*
D24*
X133900000Y-44500000D03*
D13*
X108100000Y-54250000D03*
X108100000Y-52350000D03*
D19*
X175035000Y-30555000D03*
D20*
X176935000Y-30555000D03*
D21*
X198200000Y-67200000D03*
X196375000Y-67200000D03*
D15*
X111350000Y-58100000D03*
X113250000Y-58100000D03*
D16*
X108100000Y-59025000D03*
X108100000Y-57200000D03*
D15*
X154637500Y-54400000D03*
X156537500Y-54400000D03*
D22*
X105900000Y-79900000D03*
X107725000Y-79900000D03*
D17*
X166267500Y-54260000D03*
D18*
X166267500Y-56800000D03*
X166267500Y-59340000D03*
X166267500Y-61880000D03*
X173887500Y-61880000D03*
X173887500Y-59340000D03*
X173887500Y-56800000D03*
X173887500Y-54260000D03*
D12*
X99400000Y-27800000D03*
D25*
X99400000Y-30340000D03*
X99400000Y-32880000D03*
D15*
X106900000Y-49000000D03*
X108800000Y-49000000D03*
D26*
X145100000Y-79200000D03*
D25*
X147640000Y-79200000D03*
X150180000Y-79200000D03*
X152720000Y-79200000D03*
X155260000Y-79200000D03*
X157800000Y-79200000D03*
X160340000Y-79200000D03*
D17*
X102450000Y-68900000D03*
D18*
X102450000Y-71440000D03*
X102450000Y-73980000D03*
X102450000Y-76520000D03*
X110070000Y-76520000D03*
X110070000Y-73980000D03*
X110070000Y-71440000D03*
X110070000Y-68900000D03*
D10*
X165160000Y-44145000D03*
D11*
X167700000Y-44145000D03*
X170240000Y-44145000D03*
D16*
X117950000Y-72712500D03*
X117950000Y-70887500D03*
D22*
X109700000Y-80000000D03*
X111525000Y-80000000D03*
D17*
X144587500Y-54700000D03*
D18*
X144587500Y-57240000D03*
X144587500Y-59780000D03*
X144587500Y-62320000D03*
X152207500Y-62320000D03*
X152207500Y-59780000D03*
X152207500Y-57240000D03*
X152207500Y-54700000D03*
D27*
X116203949Y-44503949D03*
D24*
X118000000Y-46300000D03*
D10*
X145960000Y-45445000D03*
D11*
X148500000Y-45445000D03*
X151040000Y-45445000D03*
D28*
X123625000Y-49300000D03*
D24*
X126165000Y-49300000D03*
D21*
X98312500Y-46400000D03*
X96487500Y-46400000D03*
D19*
X174395000Y-44300000D03*
D20*
X176295000Y-44300000D03*
D10*
X146700000Y-30200000D03*
D11*
X149240000Y-30200000D03*
X151780000Y-30200000D03*
D17*
X186687500Y-56700000D03*
D18*
X186687500Y-59240000D03*
X186687500Y-61780000D03*
X186687500Y-64320000D03*
X194307500Y-64320000D03*
X194307500Y-61780000D03*
X194307500Y-59240000D03*
X194307500Y-56700000D03*
D13*
X96300000Y-32650000D03*
X96300000Y-30750000D03*
D16*
X183587500Y-65812500D03*
X183587500Y-63987500D03*
D14*
X98450000Y-68887500D03*
X98450000Y-70712500D03*
D21*
X100525000Y-60000000D03*
X98700000Y-60000000D03*
D27*
X131600000Y-34900000D03*
D24*
X133396051Y-36696051D03*
D29*
X94200000Y-77600000D03*
D23*
X116600000Y-36000000D03*
D24*
X118396051Y-34203949D03*
D21*
X172900000Y-64900000D03*
X171075000Y-64900000D03*
D30*
X103550000Y-79700000D03*
X101650000Y-79700000D03*
D31*
X104700000Y-28150000D03*
X104700000Y-30050000D03*
D12*
X120050000Y-77100000D03*
D10*
X184060000Y-44745000D03*
D11*
X186600000Y-44745000D03*
X189140000Y-44745000D03*
D13*
X117950000Y-68750000D03*
X117950000Y-66850000D03*
D16*
X172887500Y-68812500D03*
X172887500Y-66987500D03*
D19*
X194240000Y-30555000D03*
D20*
X196140000Y-30555000D03*
D12*
X125200000Y-38900000D03*
D25*
X125200000Y-41440000D03*
D28*
X123760000Y-31300000D03*
D24*
X126300000Y-31300000D03*
D21*
X183612500Y-61800000D03*
X181787500Y-61800000D03*
D15*
X176537500Y-51700000D03*
X178437500Y-51700000D03*
D10*
X184800000Y-30600000D03*
D11*
X187340000Y-30600000D03*
X189880000Y-30600000D03*
D21*
X141712500Y-59900000D03*
X139887500Y-59900000D03*
D19*
X193200000Y-44700000D03*
D20*
X195100000Y-44700000D03*
D15*
X110200000Y-63700000D03*
X112100000Y-63700000D03*
X120500000Y-72700000D03*
X122400000Y-72700000D03*
D21*
X162812500Y-59400000D03*
X160987500Y-59400000D03*
D13*
X93900000Y-32650000D03*
X93900000Y-30750000D03*
D15*
X196937500Y-53500000D03*
X198837500Y-53500000D03*
D19*
X156035000Y-29955000D03*
D20*
X157935000Y-29955000D03*
D22*
X120737500Y-68700000D03*
X122562500Y-68700000D03*
D21*
X101825000Y-46400000D03*
X100000000Y-46400000D03*
M02*
