G04 #@! TF.GenerationSoftware,KiCad,Pcbnew,6.0.2-378541a8eb~116~ubuntu20.04.1*
G04 #@! TF.CreationDate,2022-03-04T16:59:05+01:00*
G04 #@! TF.ProjectId,power-ice,706f7765-722d-4696-9365-2e6b69636164,rev?*
G04 #@! TF.SameCoordinates,Original*
G04 #@! TF.FileFunction,Soldermask,Bot*
G04 #@! TF.FilePolarity,Negative*
%FSLAX46Y46*%
G04 Gerber Fmt 4.6, Leading zero omitted, Abs format (unit mm)*
G04 Created by KiCad (PCBNEW 6.0.2-378541a8eb~116~ubuntu20.04.1) date 2022-03-04 16:59:05*
%MOMM*%
%LPD*%
G01*
G04 APERTURE LIST*
G04 Aperture macros list*
%AMRoundRect*
0 Rectangle with rounded corners*
0 $1 Rounding radius*
0 $2 $3 $4 $5 $6 $7 $8 $9 X,Y pos of 4 corners*
0 Add a 4 corners polygon primitive as box body*
4,1,4,$2,$3,$4,$5,$6,$7,$8,$9,$2,$3,0*
0 Add four circle primitives for the rounded corners*
1,1,$1+$1,$2,$3*
1,1,$1+$1,$4,$5*
1,1,$1+$1,$6,$7*
1,1,$1+$1,$8,$9*
0 Add four rect primitives between the rounded corners*
20,1,$1+$1,$2,$3,$4,$5,0*
20,1,$1+$1,$4,$5,$6,$7,0*
20,1,$1+$1,$6,$7,$8,$9,0*
20,1,$1+$1,$8,$9,$2,$3,0*%
G04 Aperture macros list end*
%ADD10RoundRect,0.051000X-0.952500X-1.000000X0.952500X-1.000000X0.952500X1.000000X-0.952500X1.000000X0*%
%ADD11O,2.007000X2.102000*%
%ADD12RoundRect,0.051000X-0.850000X-0.850000X0.850000X-0.850000X0.850000X0.850000X-0.850000X0.850000X0*%
%ADD13RoundRect,0.051000X-0.800000X-0.800000X0.800000X-0.800000X0.800000X0.800000X-0.800000X0.800000X0*%
%ADD14O,1.702000X1.702000*%
%ADD15C,1.502000*%
%ADD16O,1.502000X1.502000*%
%ADD17RoundRect,0.051000X0.000000X-1.272792X1.272792X0.000000X0.000000X1.272792X-1.272792X0.000000X0*%
%ADD18C,1.902000*%
%ADD19O,1.802000X1.802000*%
%ADD20RoundRect,0.051000X0.850000X-0.850000X0.850000X0.850000X-0.850000X0.850000X-0.850000X-0.850000X0*%
%ADD21RoundRect,0.051000X-1.272792X0.000000X0.000000X-1.272792X1.272792X0.000000X0.000000X1.272792X0*%
%ADD22RoundRect,0.051000X-0.900000X-0.900000X0.900000X-0.900000X0.900000X0.900000X-0.900000X0.900000X0*%
%ADD23RoundRect,0.301000X-1.750000X-1.750000X1.750000X-1.750000X1.750000X1.750000X-1.750000X1.750000X0*%
G04 APERTURE END LIST*
D10*
X165700000Y-30600000D03*
D11*
X168240000Y-30600000D03*
X170780000Y-30600000D03*
D12*
X120250000Y-61700000D03*
D13*
X95600000Y-49400000D03*
D14*
X95600000Y-51940000D03*
X95600000Y-54480000D03*
X95600000Y-57020000D03*
X103220000Y-57020000D03*
X103220000Y-54480000D03*
X103220000Y-51940000D03*
X103220000Y-49400000D03*
D15*
X155600000Y-45000000D03*
D16*
X157500000Y-45000000D03*
D17*
X132103949Y-46296051D03*
D18*
X133900000Y-44500000D03*
D15*
X175035000Y-30555000D03*
D16*
X176935000Y-30555000D03*
D13*
X166267500Y-54260000D03*
D14*
X166267500Y-56800000D03*
X166267500Y-59340000D03*
X166267500Y-61880000D03*
X173887500Y-61880000D03*
X173887500Y-59340000D03*
X173887500Y-56800000D03*
X173887500Y-54260000D03*
D12*
X99400000Y-27800000D03*
D19*
X99400000Y-30340000D03*
X99400000Y-32880000D03*
D20*
X145100000Y-79200000D03*
D19*
X147640000Y-79200000D03*
X150180000Y-79200000D03*
X152720000Y-79200000D03*
X155260000Y-79200000D03*
X157800000Y-79200000D03*
X160340000Y-79200000D03*
D13*
X102450000Y-68900000D03*
D14*
X102450000Y-71440000D03*
X102450000Y-73980000D03*
X102450000Y-76520000D03*
X110070000Y-76520000D03*
X110070000Y-73980000D03*
X110070000Y-71440000D03*
X110070000Y-68900000D03*
D10*
X165160000Y-44145000D03*
D11*
X167700000Y-44145000D03*
X170240000Y-44145000D03*
D13*
X144587500Y-54700000D03*
D14*
X144587500Y-57240000D03*
X144587500Y-59780000D03*
X144587500Y-62320000D03*
X152207500Y-62320000D03*
X152207500Y-59780000D03*
X152207500Y-57240000D03*
X152207500Y-54700000D03*
D21*
X116203949Y-44503949D03*
D18*
X118000000Y-46300000D03*
D10*
X145960000Y-45445000D03*
D11*
X148500000Y-45445000D03*
X151040000Y-45445000D03*
D22*
X123625000Y-49300000D03*
D18*
X126165000Y-49300000D03*
D15*
X174395000Y-44300000D03*
D16*
X176295000Y-44300000D03*
D10*
X146700000Y-30200000D03*
D11*
X149240000Y-30200000D03*
X151780000Y-30200000D03*
D13*
X186687500Y-56700000D03*
D14*
X186687500Y-59240000D03*
X186687500Y-61780000D03*
X186687500Y-64320000D03*
X194307500Y-64320000D03*
X194307500Y-61780000D03*
X194307500Y-59240000D03*
X194307500Y-56700000D03*
D21*
X131600000Y-34900000D03*
D18*
X133396051Y-36696051D03*
D23*
X94200000Y-77600000D03*
D17*
X116600000Y-36000000D03*
D18*
X118396051Y-34203949D03*
D12*
X120050000Y-77100000D03*
D10*
X184060000Y-44745000D03*
D11*
X186600000Y-44745000D03*
X189140000Y-44745000D03*
D15*
X194240000Y-30555000D03*
D16*
X196140000Y-30555000D03*
D12*
X125200000Y-38900000D03*
D19*
X125200000Y-41440000D03*
D22*
X123760000Y-31300000D03*
D18*
X126300000Y-31300000D03*
D10*
X184800000Y-30600000D03*
D11*
X187340000Y-30600000D03*
X189880000Y-30600000D03*
D15*
X193200000Y-44700000D03*
D16*
X195100000Y-44700000D03*
D15*
X156035000Y-29955000D03*
D16*
X157935000Y-29955000D03*
M02*
