M48
; DRILL file {KiCad 6.0.2-378541a8eb~116~ubuntu20.04.1} date Fri Mar  4 16:59:00 2022
; FORMAT={-:-/ absolute / metric / decimal}
; #@! TF.CreationDate,2022-03-04T16:59:00+01:00
; #@! TF.GenerationSoftware,Kicad,Pcbnew,6.0.2-378541a8eb~116~ubuntu20.04.1
; #@! TF.FileFunction,MixedPlating,1,2
FMAT,2
METRIC
; #@! TA.AperFunction,Plated,PTH,ComponentDrill
T1C0.700
; #@! TA.AperFunction,Plated,PTH,ViaDrill
T2C0.800
; #@! TA.AperFunction,Plated,PTH,ComponentDrill
T3C0.800
; #@! TA.AperFunction,Plated,PTH,ComponentDrill
T4C0.900
; #@! TA.AperFunction,Plated,PTH,ComponentDrill
T5C1.000
; #@! TA.AperFunction,Plated,PTH,ComponentDrill
T6C1.100
; #@! TA.AperFunction,Plated,PTH,ComponentDrill
T7C3.000
%
G90
G05
T1
X155.6Y-45.0
X156.035Y-29.955
X157.5Y-45.0
X157.935Y-29.955
X174.395Y-44.3
X175.035Y-30.555
X176.295Y-44.3
X176.935Y-30.555
X193.2Y-44.7
X194.24Y-30.555
X195.1Y-44.7
X196.14Y-30.555
T2
X101.6Y-65.2
X114.3Y-68.3
X117.7Y-58.3
X196.0Y-77.0
X199.0Y-74.0
X199.2Y-49.3
X199.9Y-46.2
T3
X95.6Y-49.4
X95.6Y-51.94
X95.6Y-54.48
X95.6Y-57.02
X102.45Y-68.9
X102.45Y-71.44
X102.45Y-73.98
X102.45Y-76.52
X103.22Y-49.4
X103.22Y-51.94
X103.22Y-54.48
X103.22Y-57.02
X110.07Y-68.9
X110.07Y-71.44
X110.07Y-73.98
X110.07Y-76.52
X144.588Y-54.7
X144.588Y-57.24
X144.588Y-59.78
X144.588Y-62.32
X152.207Y-54.7
X152.207Y-57.24
X152.207Y-59.78
X152.207Y-62.32
X166.267Y-54.26
X166.267Y-56.8
X166.267Y-59.34
X166.267Y-61.88
X173.887Y-54.26
X173.887Y-56.8
X173.887Y-59.34
X173.887Y-61.88
X186.688Y-56.7
X186.688Y-59.24
X186.688Y-61.78
X186.688Y-64.32
X194.308Y-56.7
X194.308Y-59.24
X194.308Y-61.78
X194.308Y-64.32
T4
X116.204Y-44.504
X116.6Y-36.0
X118.0Y-46.3
X118.396Y-34.204
X123.625Y-49.3
X123.76Y-31.3
X126.165Y-49.3
X126.3Y-31.3
X131.6Y-34.9
X132.104Y-46.296
X133.396Y-36.696
X133.9Y-44.5
T5
X99.4Y-27.8
X99.4Y-30.34
X99.4Y-32.88
X120.05Y-77.1
X120.25Y-61.7
X125.2Y-38.9
X125.2Y-41.44
X145.1Y-79.2
X147.64Y-79.2
X150.18Y-79.2
X152.72Y-79.2
X155.26Y-79.2
X157.8Y-79.2
X160.34Y-79.2
T6
X145.96Y-45.445
X146.7Y-30.2
X148.5Y-45.445
X149.24Y-30.2
X151.04Y-45.445
X151.78Y-30.2
X165.16Y-44.145
X165.7Y-30.6
X167.7Y-44.145
X168.24Y-30.6
X170.24Y-44.145
X170.78Y-30.6
X184.06Y-44.745
X184.8Y-30.6
X186.6Y-44.745
X187.34Y-30.6
X189.14Y-44.745
X189.88Y-30.6
T7
X94.2Y-77.6
T0
M30
