%FSLAX45Y45*%
G04 Gerber Fmt 4.5, Leading zero omitted, Abs format (unit mm)*
G04 Created by KiCad (PCBNEW 6.0.2-378541a8eb~116~ubuntu20.04.1) date 2022-03-04 16:58:57*
%MOMM*%
%LPD*%
G01*
G04 APERTURE LIST*
%TA.AperFunction,Profile*%
%ADD10C,0.050000*%
%TD*%
%ADD11C,0.200000*%
%ADD12C,0.070000*%
%ADD13C,0.080000*%
%ADD14C,0.090000*%
%ADD15C,0.100000*%
%ADD16C,0.110000*%
%ADD17C,0.300000*%
G04 APERTURE END LIST*
D10*
X20400000Y-8300000D02*
X8900000Y-8300000D01*
X8900000Y-2600000D02*
X20400000Y-2600000D01*
X20400000Y-2600000D02*
X20400000Y-8200000D01*
X8900000Y-8300000D02*
X8900000Y-2600000D01*
X20400000Y-8200000D02*
X20400000Y-8300000D01*
D11*
D12*
X15525000Y-4465000D02*
X15595000Y-4535000D01*
X15595000Y-4465000D02*
X15525000Y-4535000D01*
X15568500Y-2960500D02*
X15638500Y-3030500D01*
X15638500Y-2960500D02*
X15568500Y-3030500D01*
X15715000Y-4465000D02*
X15785000Y-4535000D01*
X15785000Y-4465000D02*
X15715000Y-4535000D01*
X15758500Y-2960500D02*
X15828500Y-3030500D01*
X15828500Y-2960500D02*
X15758500Y-3030500D01*
X17404500Y-4395000D02*
X17474500Y-4465000D01*
X17474500Y-4395000D02*
X17404500Y-4465000D01*
X17468500Y-3020500D02*
X17538500Y-3090500D01*
X17538500Y-3020500D02*
X17468500Y-3090500D01*
X17594500Y-4395000D02*
X17664500Y-4465000D01*
X17664500Y-4395000D02*
X17594500Y-4465000D01*
X17658500Y-3020500D02*
X17728500Y-3090500D01*
X17728500Y-3020500D02*
X17658500Y-3090500D01*
X19285000Y-4435000D02*
X19355000Y-4505000D01*
X19355000Y-4435000D02*
X19285000Y-4505000D01*
X19389000Y-3020500D02*
X19459000Y-3090500D01*
X19459000Y-3020500D02*
X19389000Y-3090500D01*
X19475000Y-4435000D02*
X19545000Y-4505000D01*
X19545000Y-4435000D02*
X19475000Y-4505000D01*
X19579000Y-3020500D02*
X19649000Y-3090500D01*
X19649000Y-3020500D02*
X19579000Y-3090500D01*
D13*
X10200000Y-6520000D02*
G75*
G03*
X10200000Y-6520000I-40000J0D01*
G01*
X11470000Y-6830000D02*
G75*
G03*
X11470000Y-6830000I-40000J0D01*
G01*
X11810000Y-5830000D02*
G75*
G03*
X11810000Y-5830000I-40000J0D01*
G01*
X19640000Y-7700000D02*
G75*
G03*
X19640000Y-7700000I-40000J0D01*
G01*
X19940000Y-7400000D02*
G75*
G03*
X19940000Y-7400000I-40000J0D01*
G01*
X19960000Y-4930000D02*
G75*
G03*
X19960000Y-4930000I-40000J0D01*
G01*
X20030000Y-4620000D02*
G75*
G03*
X20030000Y-4620000I-40000J0D01*
G01*
X9560000Y-4900000D02*
X9560000Y-4980000D01*
X9520000Y-4940000D02*
X9600000Y-4940000D01*
X9560000Y-5154000D02*
X9560000Y-5234000D01*
X9520000Y-5194000D02*
X9600000Y-5194000D01*
X9560000Y-5408000D02*
X9560000Y-5488000D01*
X9520000Y-5448000D02*
X9600000Y-5448000D01*
X9560000Y-5662000D02*
X9560000Y-5742000D01*
X9520000Y-5702000D02*
X9600000Y-5702000D01*
X10245000Y-6850000D02*
X10245000Y-6930000D01*
X10205000Y-6890000D02*
X10285000Y-6890000D01*
X10245000Y-7104000D02*
X10245000Y-7184000D01*
X10205000Y-7144000D02*
X10285000Y-7144000D01*
X10245000Y-7358000D02*
X10245000Y-7438000D01*
X10205000Y-7398000D02*
X10285000Y-7398000D01*
X10245000Y-7612000D02*
X10245000Y-7692000D01*
X10205000Y-7652000D02*
X10285000Y-7652000D01*
X10322000Y-4900000D02*
X10322000Y-4980000D01*
X10282000Y-4940000D02*
X10362000Y-4940000D01*
X10322000Y-5154000D02*
X10322000Y-5234000D01*
X10282000Y-5194000D02*
X10362000Y-5194000D01*
X10322000Y-5408000D02*
X10322000Y-5488000D01*
X10282000Y-5448000D02*
X10362000Y-5448000D01*
X10322000Y-5662000D02*
X10322000Y-5742000D01*
X10282000Y-5702000D02*
X10362000Y-5702000D01*
X11007000Y-6850000D02*
X11007000Y-6930000D01*
X10967000Y-6890000D02*
X11047000Y-6890000D01*
X11007000Y-7104000D02*
X11007000Y-7184000D01*
X10967000Y-7144000D02*
X11047000Y-7144000D01*
X11007000Y-7358000D02*
X11007000Y-7438000D01*
X10967000Y-7398000D02*
X11047000Y-7398000D01*
X11007000Y-7612000D02*
X11007000Y-7692000D01*
X10967000Y-7652000D02*
X11047000Y-7652000D01*
X14458750Y-5430000D02*
X14458750Y-5510000D01*
X14418750Y-5470000D02*
X14498750Y-5470000D01*
X14458750Y-5684000D02*
X14458750Y-5764000D01*
X14418750Y-5724000D02*
X14498750Y-5724000D01*
X14458750Y-5938000D02*
X14458750Y-6018000D01*
X14418750Y-5978000D02*
X14498750Y-5978000D01*
X14458750Y-6192000D02*
X14458750Y-6272000D01*
X14418750Y-6232000D02*
X14498750Y-6232000D01*
X15220750Y-5430000D02*
X15220750Y-5510000D01*
X15180750Y-5470000D02*
X15260750Y-5470000D01*
X15220750Y-5684000D02*
X15220750Y-5764000D01*
X15180750Y-5724000D02*
X15260750Y-5724000D01*
X15220750Y-5938000D02*
X15220750Y-6018000D01*
X15180750Y-5978000D02*
X15260750Y-5978000D01*
X15220750Y-6192000D02*
X15220750Y-6272000D01*
X15180750Y-6232000D02*
X15260750Y-6232000D01*
X16626750Y-5386000D02*
X16626750Y-5466000D01*
X16586750Y-5426000D02*
X16666750Y-5426000D01*
X16626750Y-5640000D02*
X16626750Y-5720000D01*
X16586750Y-5680000D02*
X16666750Y-5680000D01*
X16626750Y-5894000D02*
X16626750Y-5974000D01*
X16586750Y-5934000D02*
X16666750Y-5934000D01*
X16626750Y-6148000D02*
X16626750Y-6228000D01*
X16586750Y-6188000D02*
X16666750Y-6188000D01*
X17388750Y-5386000D02*
X17388750Y-5466000D01*
X17348750Y-5426000D02*
X17428750Y-5426000D01*
X17388750Y-5640000D02*
X17388750Y-5720000D01*
X17348750Y-5680000D02*
X17428750Y-5680000D01*
X17388750Y-5894000D02*
X17388750Y-5974000D01*
X17348750Y-5934000D02*
X17428750Y-5934000D01*
X17388750Y-6148000D02*
X17388750Y-6228000D01*
X17348750Y-6188000D02*
X17428750Y-6188000D01*
X18668750Y-5630000D02*
X18668750Y-5710000D01*
X18628750Y-5670000D02*
X18708750Y-5670000D01*
X18668750Y-5884000D02*
X18668750Y-5964000D01*
X18628750Y-5924000D02*
X18708750Y-5924000D01*
X18668750Y-6138000D02*
X18668750Y-6218000D01*
X18628750Y-6178000D02*
X18708750Y-6178000D01*
X18668750Y-6392000D02*
X18668750Y-6472000D01*
X18628750Y-6432000D02*
X18708750Y-6432000D01*
X19430750Y-5630000D02*
X19430750Y-5710000D01*
X19390750Y-5670000D02*
X19470750Y-5670000D01*
X19430750Y-5884000D02*
X19430750Y-5964000D01*
X19390750Y-5924000D02*
X19470750Y-5924000D01*
X19430750Y-6138000D02*
X19430750Y-6218000D01*
X19390750Y-6178000D02*
X19470750Y-6178000D01*
X19430750Y-6392000D02*
X19430750Y-6472000D01*
X19390750Y-6432000D02*
X19470750Y-6432000D01*
D14*
X11652215Y-4482215D02*
X11652215Y-4418575D01*
X11588575Y-4418575D01*
X11588575Y-4482215D01*
X11652215Y-4482215D01*
X11691820Y-3631820D02*
X11691820Y-3568180D01*
X11628180Y-3568180D01*
X11628180Y-3631820D01*
X11691820Y-3631820D01*
X11831820Y-4661820D02*
X11831820Y-4598180D01*
X11768180Y-4598180D01*
X11768180Y-4661820D01*
X11831820Y-4661820D01*
X11871425Y-3452215D02*
X11871425Y-3388575D01*
X11807785Y-3388575D01*
X11807785Y-3452215D01*
X11871425Y-3452215D01*
X12394320Y-4961820D02*
X12394320Y-4898180D01*
X12330680Y-4898180D01*
X12330680Y-4961820D01*
X12394320Y-4961820D01*
X12407820Y-3161820D02*
X12407820Y-3098180D01*
X12344180Y-3098180D01*
X12344180Y-3161820D01*
X12407820Y-3161820D01*
X12648320Y-4961820D02*
X12648320Y-4898180D01*
X12584680Y-4898180D01*
X12584680Y-4961820D01*
X12648320Y-4961820D01*
X12661820Y-3161820D02*
X12661820Y-3098180D01*
X12598180Y-3098180D01*
X12598180Y-3161820D01*
X12661820Y-3161820D01*
X13191820Y-3521820D02*
X13191820Y-3458180D01*
X13128180Y-3458180D01*
X13128180Y-3521820D01*
X13191820Y-3521820D01*
X13242215Y-4661425D02*
X13242215Y-4597785D01*
X13178575Y-4597785D01*
X13178575Y-4661425D01*
X13242215Y-4661425D01*
X13371425Y-3701425D02*
X13371425Y-3637785D01*
X13307785Y-3637785D01*
X13307785Y-3701425D01*
X13371425Y-3701425D01*
X13421820Y-4481820D02*
X13421820Y-4418180D01*
X13358180Y-4418180D01*
X13358180Y-4481820D01*
X13421820Y-4481820D01*
D15*
X9940000Y-2830000D02*
X9990000Y-2780000D01*
X9940000Y-2730000D01*
X9890000Y-2780000D01*
X9940000Y-2830000D01*
X9940000Y-3084000D02*
X9990000Y-3034000D01*
X9940000Y-2984000D01*
X9890000Y-3034000D01*
X9940000Y-3084000D01*
X9940000Y-3338000D02*
X9990000Y-3288000D01*
X9940000Y-3238000D01*
X9890000Y-3288000D01*
X9940000Y-3338000D01*
X12005000Y-7760000D02*
X12055000Y-7710000D01*
X12005000Y-7660000D01*
X11955000Y-7710000D01*
X12005000Y-7760000D01*
X12025000Y-6220000D02*
X12075000Y-6170000D01*
X12025000Y-6120000D01*
X11975000Y-6170000D01*
X12025000Y-6220000D01*
X12520000Y-3940000D02*
X12570000Y-3890000D01*
X12520000Y-3840000D01*
X12470000Y-3890000D01*
X12520000Y-3940000D01*
X12520000Y-4194000D02*
X12570000Y-4144000D01*
X12520000Y-4094000D01*
X12470000Y-4144000D01*
X12520000Y-4194000D01*
X14510000Y-7970000D02*
X14560000Y-7920000D01*
X14510000Y-7870000D01*
X14460000Y-7920000D01*
X14510000Y-7970000D01*
X14764000Y-7970000D02*
X14814000Y-7920000D01*
X14764000Y-7870000D01*
X14714000Y-7920000D01*
X14764000Y-7970000D01*
X15018000Y-7970000D02*
X15068000Y-7920000D01*
X15018000Y-7870000D01*
X14968000Y-7920000D01*
X15018000Y-7970000D01*
X15272000Y-7970000D02*
X15322000Y-7920000D01*
X15272000Y-7870000D01*
X15222000Y-7920000D01*
X15272000Y-7970000D01*
X15526000Y-7970000D02*
X15576000Y-7920000D01*
X15526000Y-7870000D01*
X15476000Y-7920000D01*
X15526000Y-7970000D01*
X15780000Y-7970000D02*
X15830000Y-7920000D01*
X15780000Y-7870000D01*
X15730000Y-7920000D01*
X15780000Y-7970000D01*
X16034000Y-7970000D02*
X16084000Y-7920000D01*
X16034000Y-7870000D01*
X15984000Y-7920000D01*
X16034000Y-7970000D01*
D16*
X14541000Y-4489500D02*
X14651000Y-4599500D01*
X14651000Y-4489500D02*
X14541000Y-4599500D01*
X14651000Y-4544500D02*
G75*
G03*
X14651000Y-4544500I-55000J0D01*
G01*
X14615000Y-2965000D02*
X14725000Y-3075000D01*
X14725000Y-2965000D02*
X14615000Y-3075000D01*
X14725000Y-3020000D02*
G75*
G03*
X14725000Y-3020000I-55000J0D01*
G01*
X14795000Y-4489500D02*
X14905000Y-4599500D01*
X14905000Y-4489500D02*
X14795000Y-4599500D01*
X14905000Y-4544500D02*
G75*
G03*
X14905000Y-4544500I-55000J0D01*
G01*
X14869000Y-2965000D02*
X14979000Y-3075000D01*
X14979000Y-2965000D02*
X14869000Y-3075000D01*
X14979000Y-3020000D02*
G75*
G03*
X14979000Y-3020000I-55000J0D01*
G01*
X15049000Y-4489500D02*
X15159000Y-4599500D01*
X15159000Y-4489500D02*
X15049000Y-4599500D01*
X15159000Y-4544500D02*
G75*
G03*
X15159000Y-4544500I-55000J0D01*
G01*
X15123000Y-2965000D02*
X15233000Y-3075000D01*
X15233000Y-2965000D02*
X15123000Y-3075000D01*
X15233000Y-3020000D02*
G75*
G03*
X15233000Y-3020000I-55000J0D01*
G01*
X16461000Y-4359500D02*
X16571000Y-4469500D01*
X16571000Y-4359500D02*
X16461000Y-4469500D01*
X16571000Y-4414500D02*
G75*
G03*
X16571000Y-4414500I-55000J0D01*
G01*
X16515000Y-3005000D02*
X16625000Y-3115000D01*
X16625000Y-3005000D02*
X16515000Y-3115000D01*
X16625000Y-3060000D02*
G75*
G03*
X16625000Y-3060000I-55000J0D01*
G01*
X16715000Y-4359500D02*
X16825000Y-4469500D01*
X16825000Y-4359500D02*
X16715000Y-4469500D01*
X16825000Y-4414500D02*
G75*
G03*
X16825000Y-4414500I-55000J0D01*
G01*
X16769000Y-3005000D02*
X16879000Y-3115000D01*
X16879000Y-3005000D02*
X16769000Y-3115000D01*
X16879000Y-3060000D02*
G75*
G03*
X16879000Y-3060000I-55000J0D01*
G01*
X16969000Y-4359500D02*
X17079000Y-4469500D01*
X17079000Y-4359500D02*
X16969000Y-4469500D01*
X17079000Y-4414500D02*
G75*
G03*
X17079000Y-4414500I-55000J0D01*
G01*
X17023000Y-3005000D02*
X17133000Y-3115000D01*
X17133000Y-3005000D02*
X17023000Y-3115000D01*
X17133000Y-3060000D02*
G75*
G03*
X17133000Y-3060000I-55000J0D01*
G01*
X18351000Y-4419500D02*
X18461000Y-4529500D01*
X18461000Y-4419500D02*
X18351000Y-4529500D01*
X18461000Y-4474500D02*
G75*
G03*
X18461000Y-4474500I-55000J0D01*
G01*
X18425000Y-3005000D02*
X18535000Y-3115000D01*
X18535000Y-3005000D02*
X18425000Y-3115000D01*
X18535000Y-3060000D02*
G75*
G03*
X18535000Y-3060000I-55000J0D01*
G01*
X18605000Y-4419500D02*
X18715000Y-4529500D01*
X18715000Y-4419500D02*
X18605000Y-4529500D01*
X18715000Y-4474500D02*
G75*
G03*
X18715000Y-4474500I-55000J0D01*
G01*
X18679000Y-3005000D02*
X18789000Y-3115000D01*
X18789000Y-3005000D02*
X18679000Y-3115000D01*
X18789000Y-3060000D02*
G75*
G03*
X18789000Y-3060000I-55000J0D01*
G01*
X18859000Y-4419500D02*
X18969000Y-4529500D01*
X18969000Y-4419500D02*
X18859000Y-4529500D01*
X18969000Y-4474500D02*
G75*
G03*
X18969000Y-4474500I-55000J0D01*
G01*
X18933000Y-3005000D02*
X19043000Y-3115000D01*
X19043000Y-3005000D02*
X18933000Y-3115000D01*
X19043000Y-3060000D02*
G75*
G03*
X19043000Y-3060000I-55000J0D01*
G01*
D17*
X9270000Y-7610000D02*
X9570000Y-7910000D01*
X9570000Y-7610000D02*
X9270000Y-7910000D01*
X9420000Y-7610000D02*
X9420000Y-7910000D01*
X9270000Y-7760000D02*
X9570000Y-7760000D01*
D11*
X9155119Y-8612976D02*
X9155119Y-8412976D01*
X9202738Y-8412976D01*
X9231310Y-8422500D01*
X9250357Y-8441548D01*
X9259881Y-8460595D01*
X9269405Y-8498690D01*
X9269405Y-8527262D01*
X9259881Y-8565357D01*
X9250357Y-8584405D01*
X9231310Y-8603452D01*
X9202738Y-8612976D01*
X9155119Y-8612976D01*
X9355119Y-8612976D02*
X9355119Y-8479643D01*
X9355119Y-8517738D02*
X9364643Y-8498690D01*
X9374167Y-8489167D01*
X9393214Y-8479643D01*
X9412262Y-8479643D01*
X9478929Y-8612976D02*
X9478929Y-8479643D01*
X9478929Y-8412976D02*
X9469405Y-8422500D01*
X9478929Y-8432024D01*
X9488452Y-8422500D01*
X9478929Y-8412976D01*
X9478929Y-8432024D01*
X9602738Y-8612976D02*
X9583690Y-8603452D01*
X9574167Y-8584405D01*
X9574167Y-8412976D01*
X9707500Y-8612976D02*
X9688452Y-8603452D01*
X9678929Y-8584405D01*
X9678929Y-8412976D01*
X9936071Y-8612976D02*
X9936071Y-8412976D01*
X10002738Y-8555833D01*
X10069405Y-8412976D01*
X10069405Y-8612976D01*
X10250357Y-8612976D02*
X10250357Y-8508214D01*
X10240833Y-8489167D01*
X10221786Y-8479643D01*
X10183690Y-8479643D01*
X10164643Y-8489167D01*
X10250357Y-8603452D02*
X10231310Y-8612976D01*
X10183690Y-8612976D01*
X10164643Y-8603452D01*
X10155119Y-8584405D01*
X10155119Y-8565357D01*
X10164643Y-8546310D01*
X10183690Y-8536786D01*
X10231310Y-8536786D01*
X10250357Y-8527262D01*
X10345595Y-8479643D02*
X10345595Y-8679643D01*
X10345595Y-8489167D02*
X10364643Y-8479643D01*
X10402738Y-8479643D01*
X10421786Y-8489167D01*
X10431310Y-8498690D01*
X10440833Y-8517738D01*
X10440833Y-8574881D01*
X10431310Y-8593929D01*
X10421786Y-8603452D01*
X10402738Y-8612976D01*
X10364643Y-8612976D01*
X10345595Y-8603452D01*
X10526548Y-8593929D02*
X10536071Y-8603452D01*
X10526548Y-8612976D01*
X10517024Y-8603452D01*
X10526548Y-8593929D01*
X10526548Y-8612976D01*
X10526548Y-8489167D02*
X10536071Y-8498690D01*
X10526548Y-8508214D01*
X10517024Y-8498690D01*
X10526548Y-8489167D01*
X10526548Y-8508214D01*
D12*
X8827500Y-8907500D02*
X8897500Y-8977500D01*
X8897500Y-8907500D02*
X8827500Y-8977500D01*
D11*
X9193214Y-8832976D02*
X9212262Y-8832976D01*
X9231310Y-8842500D01*
X9240833Y-8852024D01*
X9250357Y-8871071D01*
X9259881Y-8909167D01*
X9259881Y-8956786D01*
X9250357Y-8994881D01*
X9240833Y-9013929D01*
X9231310Y-9023452D01*
X9212262Y-9032976D01*
X9193214Y-9032976D01*
X9174167Y-9023452D01*
X9164643Y-9013929D01*
X9155119Y-8994881D01*
X9145595Y-8956786D01*
X9145595Y-8909167D01*
X9155119Y-8871071D01*
X9164643Y-8852024D01*
X9174167Y-8842500D01*
X9193214Y-8832976D01*
X9345595Y-9013929D02*
X9355119Y-9023452D01*
X9345595Y-9032976D01*
X9336071Y-9023452D01*
X9345595Y-9013929D01*
X9345595Y-9032976D01*
X9421786Y-8832976D02*
X9555119Y-8832976D01*
X9469405Y-9032976D01*
X9669405Y-8832976D02*
X9688452Y-8832976D01*
X9707500Y-8842500D01*
X9717024Y-8852024D01*
X9726548Y-8871071D01*
X9736071Y-8909167D01*
X9736071Y-8956786D01*
X9726548Y-8994881D01*
X9717024Y-9013929D01*
X9707500Y-9023452D01*
X9688452Y-9032976D01*
X9669405Y-9032976D01*
X9650357Y-9023452D01*
X9640833Y-9013929D01*
X9631310Y-8994881D01*
X9621786Y-8956786D01*
X9621786Y-8909167D01*
X9631310Y-8871071D01*
X9640833Y-8852024D01*
X9650357Y-8842500D01*
X9669405Y-8832976D01*
X9859881Y-8832976D02*
X9878929Y-8832976D01*
X9897976Y-8842500D01*
X9907500Y-8852024D01*
X9917024Y-8871071D01*
X9926548Y-8909167D01*
X9926548Y-8956786D01*
X9917024Y-8994881D01*
X9907500Y-9013929D01*
X9897976Y-9023452D01*
X9878929Y-9032976D01*
X9859881Y-9032976D01*
X9840833Y-9023452D01*
X9831310Y-9013929D01*
X9821786Y-8994881D01*
X9812262Y-8956786D01*
X9812262Y-8909167D01*
X9821786Y-8871071D01*
X9831310Y-8852024D01*
X9840833Y-8842500D01*
X9859881Y-8832976D01*
X10012262Y-9032976D02*
X10012262Y-8899643D01*
X10012262Y-8918690D02*
X10021786Y-8909167D01*
X10040833Y-8899643D01*
X10069405Y-8899643D01*
X10088452Y-8909167D01*
X10097976Y-8928214D01*
X10097976Y-9032976D01*
X10097976Y-8928214D02*
X10107500Y-8909167D01*
X10126548Y-8899643D01*
X10155119Y-8899643D01*
X10174167Y-8909167D01*
X10183690Y-8928214D01*
X10183690Y-9032976D01*
X10278929Y-9032976D02*
X10278929Y-8899643D01*
X10278929Y-8918690D02*
X10288452Y-8909167D01*
X10307500Y-8899643D01*
X10336071Y-8899643D01*
X10355119Y-8909167D01*
X10364643Y-8928214D01*
X10364643Y-9032976D01*
X10364643Y-8928214D02*
X10374167Y-8909167D01*
X10393214Y-8899643D01*
X10421786Y-8899643D01*
X10440833Y-8909167D01*
X10450357Y-8928214D01*
X10450357Y-9032976D01*
X10840833Y-8823452D02*
X10669405Y-9080595D01*
X11097976Y-8832976D02*
X11117024Y-8832976D01*
X11136071Y-8842500D01*
X11145595Y-8852024D01*
X11155119Y-8871071D01*
X11164643Y-8909167D01*
X11164643Y-8956786D01*
X11155119Y-8994881D01*
X11145595Y-9013929D01*
X11136071Y-9023452D01*
X11117024Y-9032976D01*
X11097976Y-9032976D01*
X11078929Y-9023452D01*
X11069405Y-9013929D01*
X11059881Y-8994881D01*
X11050357Y-8956786D01*
X11050357Y-8909167D01*
X11059881Y-8871071D01*
X11069405Y-8852024D01*
X11078929Y-8842500D01*
X11097976Y-8832976D01*
X11250357Y-9013929D02*
X11259881Y-9023452D01*
X11250357Y-9032976D01*
X11240833Y-9023452D01*
X11250357Y-9013929D01*
X11250357Y-9032976D01*
X11383690Y-8832976D02*
X11402738Y-8832976D01*
X11421786Y-8842500D01*
X11431309Y-8852024D01*
X11440833Y-8871071D01*
X11450357Y-8909167D01*
X11450357Y-8956786D01*
X11440833Y-8994881D01*
X11431309Y-9013929D01*
X11421786Y-9023452D01*
X11402738Y-9032976D01*
X11383690Y-9032976D01*
X11364643Y-9023452D01*
X11355119Y-9013929D01*
X11345595Y-8994881D01*
X11336071Y-8956786D01*
X11336071Y-8909167D01*
X11345595Y-8871071D01*
X11355119Y-8852024D01*
X11364643Y-8842500D01*
X11383690Y-8832976D01*
X11526548Y-8852024D02*
X11536071Y-8842500D01*
X11555119Y-8832976D01*
X11602738Y-8832976D01*
X11621786Y-8842500D01*
X11631309Y-8852024D01*
X11640833Y-8871071D01*
X11640833Y-8890119D01*
X11631309Y-8918690D01*
X11517024Y-9032976D01*
X11640833Y-9032976D01*
X11707500Y-8832976D02*
X11840833Y-8832976D01*
X11755119Y-9032976D01*
X12002738Y-8832976D02*
X11964643Y-8832976D01*
X11945595Y-8842500D01*
X11936071Y-8852024D01*
X11917024Y-8880595D01*
X11907500Y-8918690D01*
X11907500Y-8994881D01*
X11917024Y-9013929D01*
X11926548Y-9023452D01*
X11945595Y-9032976D01*
X11983690Y-9032976D01*
X12002738Y-9023452D01*
X12012262Y-9013929D01*
X12021786Y-8994881D01*
X12021786Y-8947262D01*
X12012262Y-8928214D01*
X12002738Y-8918690D01*
X11983690Y-8909167D01*
X11945595Y-8909167D01*
X11926548Y-8918690D01*
X11917024Y-8928214D01*
X11907500Y-8947262D01*
X12097976Y-8832976D02*
X12097976Y-8871071D01*
X12174167Y-8832976D02*
X12174167Y-8871071D01*
X12469405Y-9109167D02*
X12459881Y-9099643D01*
X12440833Y-9071071D01*
X12431309Y-9052024D01*
X12421786Y-9023452D01*
X12412262Y-8975833D01*
X12412262Y-8937738D01*
X12421786Y-8890119D01*
X12431309Y-8861548D01*
X12440833Y-8842500D01*
X12459881Y-8813929D01*
X12469405Y-8804405D01*
X12650357Y-9032976D02*
X12536071Y-9032976D01*
X12593214Y-9032976D02*
X12593214Y-8832976D01*
X12574167Y-8861548D01*
X12555119Y-8880595D01*
X12536071Y-8890119D01*
X12726548Y-8852024D02*
X12736071Y-8842500D01*
X12755119Y-8832976D01*
X12802738Y-8832976D01*
X12821786Y-8842500D01*
X12831309Y-8852024D01*
X12840833Y-8871071D01*
X12840833Y-8890119D01*
X12831309Y-8918690D01*
X12717024Y-9032976D01*
X12840833Y-9032976D01*
X13078928Y-9032976D02*
X13078928Y-8832976D01*
X13164643Y-9032976D02*
X13164643Y-8928214D01*
X13155119Y-8909167D01*
X13136071Y-8899643D01*
X13107500Y-8899643D01*
X13088452Y-8909167D01*
X13078928Y-8918690D01*
X13288452Y-9032976D02*
X13269405Y-9023452D01*
X13259881Y-9013929D01*
X13250357Y-8994881D01*
X13250357Y-8937738D01*
X13259881Y-8918690D01*
X13269405Y-8909167D01*
X13288452Y-8899643D01*
X13317024Y-8899643D01*
X13336071Y-8909167D01*
X13345595Y-8918690D01*
X13355119Y-8937738D01*
X13355119Y-8994881D01*
X13345595Y-9013929D01*
X13336071Y-9023452D01*
X13317024Y-9032976D01*
X13288452Y-9032976D01*
X13469405Y-9032976D02*
X13450357Y-9023452D01*
X13440833Y-9004405D01*
X13440833Y-8832976D01*
X13621786Y-9023452D02*
X13602738Y-9032976D01*
X13564643Y-9032976D01*
X13545595Y-9023452D01*
X13536071Y-9004405D01*
X13536071Y-8928214D01*
X13545595Y-8909167D01*
X13564643Y-8899643D01*
X13602738Y-8899643D01*
X13621786Y-8909167D01*
X13631309Y-8928214D01*
X13631309Y-8947262D01*
X13536071Y-8966310D01*
X13707500Y-9023452D02*
X13726548Y-9032976D01*
X13764643Y-9032976D01*
X13783690Y-9023452D01*
X13793214Y-9004405D01*
X13793214Y-8994881D01*
X13783690Y-8975833D01*
X13764643Y-8966310D01*
X13736071Y-8966310D01*
X13717024Y-8956786D01*
X13707500Y-8937738D01*
X13707500Y-8928214D01*
X13717024Y-8909167D01*
X13736071Y-8899643D01*
X13764643Y-8899643D01*
X13783690Y-8909167D01*
X13859881Y-9109167D02*
X13869405Y-9099643D01*
X13888452Y-9071071D01*
X13897976Y-9052024D01*
X13907500Y-9023452D01*
X13917024Y-8975833D01*
X13917024Y-8937738D01*
X13907500Y-8890119D01*
X13897976Y-8861548D01*
X13888452Y-8842500D01*
X13869405Y-8813929D01*
X13859881Y-8804405D01*
D13*
X8897500Y-9206500D02*
G75*
G03*
X8897500Y-9206500I-40000J0D01*
G01*
D11*
X9193214Y-9096976D02*
X9212262Y-9096976D01*
X9231310Y-9106500D01*
X9240833Y-9116024D01*
X9250357Y-9135071D01*
X9259881Y-9173167D01*
X9259881Y-9220786D01*
X9250357Y-9258881D01*
X9240833Y-9277929D01*
X9231310Y-9287452D01*
X9212262Y-9296976D01*
X9193214Y-9296976D01*
X9174167Y-9287452D01*
X9164643Y-9277929D01*
X9155119Y-9258881D01*
X9145595Y-9220786D01*
X9145595Y-9173167D01*
X9155119Y-9135071D01*
X9164643Y-9116024D01*
X9174167Y-9106500D01*
X9193214Y-9096976D01*
X9345595Y-9277929D02*
X9355119Y-9287452D01*
X9345595Y-9296976D01*
X9336071Y-9287452D01*
X9345595Y-9277929D01*
X9345595Y-9296976D01*
X9469405Y-9182690D02*
X9450357Y-9173167D01*
X9440833Y-9163643D01*
X9431310Y-9144595D01*
X9431310Y-9135071D01*
X9440833Y-9116024D01*
X9450357Y-9106500D01*
X9469405Y-9096976D01*
X9507500Y-9096976D01*
X9526548Y-9106500D01*
X9536071Y-9116024D01*
X9545595Y-9135071D01*
X9545595Y-9144595D01*
X9536071Y-9163643D01*
X9526548Y-9173167D01*
X9507500Y-9182690D01*
X9469405Y-9182690D01*
X9450357Y-9192214D01*
X9440833Y-9201738D01*
X9431310Y-9220786D01*
X9431310Y-9258881D01*
X9440833Y-9277929D01*
X9450357Y-9287452D01*
X9469405Y-9296976D01*
X9507500Y-9296976D01*
X9526548Y-9287452D01*
X9536071Y-9277929D01*
X9545595Y-9258881D01*
X9545595Y-9220786D01*
X9536071Y-9201738D01*
X9526548Y-9192214D01*
X9507500Y-9182690D01*
X9669405Y-9096976D02*
X9688452Y-9096976D01*
X9707500Y-9106500D01*
X9717024Y-9116024D01*
X9726548Y-9135071D01*
X9736071Y-9173167D01*
X9736071Y-9220786D01*
X9726548Y-9258881D01*
X9717024Y-9277929D01*
X9707500Y-9287452D01*
X9688452Y-9296976D01*
X9669405Y-9296976D01*
X9650357Y-9287452D01*
X9640833Y-9277929D01*
X9631310Y-9258881D01*
X9621786Y-9220786D01*
X9621786Y-9173167D01*
X9631310Y-9135071D01*
X9640833Y-9116024D01*
X9650357Y-9106500D01*
X9669405Y-9096976D01*
X9859881Y-9096976D02*
X9878929Y-9096976D01*
X9897976Y-9106500D01*
X9907500Y-9116024D01*
X9917024Y-9135071D01*
X9926548Y-9173167D01*
X9926548Y-9220786D01*
X9917024Y-9258881D01*
X9907500Y-9277929D01*
X9897976Y-9287452D01*
X9878929Y-9296976D01*
X9859881Y-9296976D01*
X9840833Y-9287452D01*
X9831310Y-9277929D01*
X9821786Y-9258881D01*
X9812262Y-9220786D01*
X9812262Y-9173167D01*
X9821786Y-9135071D01*
X9831310Y-9116024D01*
X9840833Y-9106500D01*
X9859881Y-9096976D01*
X10012262Y-9296976D02*
X10012262Y-9163643D01*
X10012262Y-9182690D02*
X10021786Y-9173167D01*
X10040833Y-9163643D01*
X10069405Y-9163643D01*
X10088452Y-9173167D01*
X10097976Y-9192214D01*
X10097976Y-9296976D01*
X10097976Y-9192214D02*
X10107500Y-9173167D01*
X10126548Y-9163643D01*
X10155119Y-9163643D01*
X10174167Y-9173167D01*
X10183690Y-9192214D01*
X10183690Y-9296976D01*
X10278929Y-9296976D02*
X10278929Y-9163643D01*
X10278929Y-9182690D02*
X10288452Y-9173167D01*
X10307500Y-9163643D01*
X10336071Y-9163643D01*
X10355119Y-9173167D01*
X10364643Y-9192214D01*
X10364643Y-9296976D01*
X10364643Y-9192214D02*
X10374167Y-9173167D01*
X10393214Y-9163643D01*
X10421786Y-9163643D01*
X10440833Y-9173167D01*
X10450357Y-9192214D01*
X10450357Y-9296976D01*
X10840833Y-9087452D02*
X10669405Y-9344595D01*
X11097976Y-9096976D02*
X11117024Y-9096976D01*
X11136071Y-9106500D01*
X11145595Y-9116024D01*
X11155119Y-9135071D01*
X11164643Y-9173167D01*
X11164643Y-9220786D01*
X11155119Y-9258881D01*
X11145595Y-9277929D01*
X11136071Y-9287452D01*
X11117024Y-9296976D01*
X11097976Y-9296976D01*
X11078929Y-9287452D01*
X11069405Y-9277929D01*
X11059881Y-9258881D01*
X11050357Y-9220786D01*
X11050357Y-9173167D01*
X11059881Y-9135071D01*
X11069405Y-9116024D01*
X11078929Y-9106500D01*
X11097976Y-9096976D01*
X11250357Y-9277929D02*
X11259881Y-9287452D01*
X11250357Y-9296976D01*
X11240833Y-9287452D01*
X11250357Y-9277929D01*
X11250357Y-9296976D01*
X11383690Y-9096976D02*
X11402738Y-9096976D01*
X11421786Y-9106500D01*
X11431309Y-9116024D01*
X11440833Y-9135071D01*
X11450357Y-9173167D01*
X11450357Y-9220786D01*
X11440833Y-9258881D01*
X11431309Y-9277929D01*
X11421786Y-9287452D01*
X11402738Y-9296976D01*
X11383690Y-9296976D01*
X11364643Y-9287452D01*
X11355119Y-9277929D01*
X11345595Y-9258881D01*
X11336071Y-9220786D01*
X11336071Y-9173167D01*
X11345595Y-9135071D01*
X11355119Y-9116024D01*
X11364643Y-9106500D01*
X11383690Y-9096976D01*
X11517024Y-9096976D02*
X11640833Y-9096976D01*
X11574167Y-9173167D01*
X11602738Y-9173167D01*
X11621786Y-9182690D01*
X11631309Y-9192214D01*
X11640833Y-9211262D01*
X11640833Y-9258881D01*
X11631309Y-9277929D01*
X11621786Y-9287452D01*
X11602738Y-9296976D01*
X11545595Y-9296976D01*
X11526548Y-9287452D01*
X11517024Y-9277929D01*
X11831309Y-9296976D02*
X11717024Y-9296976D01*
X11774167Y-9296976D02*
X11774167Y-9096976D01*
X11755119Y-9125548D01*
X11736071Y-9144595D01*
X11717024Y-9154119D01*
X12012262Y-9096976D02*
X11917024Y-9096976D01*
X11907500Y-9192214D01*
X11917024Y-9182690D01*
X11936071Y-9173167D01*
X11983690Y-9173167D01*
X12002738Y-9182690D01*
X12012262Y-9192214D01*
X12021786Y-9211262D01*
X12021786Y-9258881D01*
X12012262Y-9277929D01*
X12002738Y-9287452D01*
X11983690Y-9296976D01*
X11936071Y-9296976D01*
X11917024Y-9287452D01*
X11907500Y-9277929D01*
X12097976Y-9096976D02*
X12097976Y-9135071D01*
X12174167Y-9096976D02*
X12174167Y-9135071D01*
X12469405Y-9373167D02*
X12459881Y-9363643D01*
X12440833Y-9335071D01*
X12431309Y-9316024D01*
X12421786Y-9287452D01*
X12412262Y-9239833D01*
X12412262Y-9201738D01*
X12421786Y-9154119D01*
X12431309Y-9125548D01*
X12440833Y-9106500D01*
X12459881Y-9077929D01*
X12469405Y-9068405D01*
X12526548Y-9096976D02*
X12659881Y-9096976D01*
X12574167Y-9296976D01*
X12888452Y-9296976D02*
X12888452Y-9096976D01*
X12974167Y-9296976D02*
X12974167Y-9192214D01*
X12964643Y-9173167D01*
X12945595Y-9163643D01*
X12917024Y-9163643D01*
X12897976Y-9173167D01*
X12888452Y-9182690D01*
X13097976Y-9296976D02*
X13078928Y-9287452D01*
X13069405Y-9277929D01*
X13059881Y-9258881D01*
X13059881Y-9201738D01*
X13069405Y-9182690D01*
X13078928Y-9173167D01*
X13097976Y-9163643D01*
X13126548Y-9163643D01*
X13145595Y-9173167D01*
X13155119Y-9182690D01*
X13164643Y-9201738D01*
X13164643Y-9258881D01*
X13155119Y-9277929D01*
X13145595Y-9287452D01*
X13126548Y-9296976D01*
X13097976Y-9296976D01*
X13278928Y-9296976D02*
X13259881Y-9287452D01*
X13250357Y-9268405D01*
X13250357Y-9096976D01*
X13431309Y-9287452D02*
X13412262Y-9296976D01*
X13374167Y-9296976D01*
X13355119Y-9287452D01*
X13345595Y-9268405D01*
X13345595Y-9192214D01*
X13355119Y-9173167D01*
X13374167Y-9163643D01*
X13412262Y-9163643D01*
X13431309Y-9173167D01*
X13440833Y-9192214D01*
X13440833Y-9211262D01*
X13345595Y-9230310D01*
X13517024Y-9287452D02*
X13536071Y-9296976D01*
X13574167Y-9296976D01*
X13593214Y-9287452D01*
X13602738Y-9268405D01*
X13602738Y-9258881D01*
X13593214Y-9239833D01*
X13574167Y-9230310D01*
X13545595Y-9230310D01*
X13526548Y-9220786D01*
X13517024Y-9201738D01*
X13517024Y-9192214D01*
X13526548Y-9173167D01*
X13545595Y-9163643D01*
X13574167Y-9163643D01*
X13593214Y-9173167D01*
X13669405Y-9373167D02*
X13678928Y-9363643D01*
X13697976Y-9335071D01*
X13707500Y-9316024D01*
X13717024Y-9287452D01*
X13726548Y-9239833D01*
X13726548Y-9201738D01*
X13717024Y-9154119D01*
X13707500Y-9125548D01*
X13697976Y-9106500D01*
X13678928Y-9077929D01*
X13669405Y-9068405D01*
D13*
X8857500Y-9430500D02*
X8857500Y-9510500D01*
X8817500Y-9470500D02*
X8897500Y-9470500D01*
D11*
X9193214Y-9360976D02*
X9212262Y-9360976D01*
X9231310Y-9370500D01*
X9240833Y-9380024D01*
X9250357Y-9399071D01*
X9259881Y-9437167D01*
X9259881Y-9484786D01*
X9250357Y-9522881D01*
X9240833Y-9541929D01*
X9231310Y-9551452D01*
X9212262Y-9560976D01*
X9193214Y-9560976D01*
X9174167Y-9551452D01*
X9164643Y-9541929D01*
X9155119Y-9522881D01*
X9145595Y-9484786D01*
X9145595Y-9437167D01*
X9155119Y-9399071D01*
X9164643Y-9380024D01*
X9174167Y-9370500D01*
X9193214Y-9360976D01*
X9345595Y-9541929D02*
X9355119Y-9551452D01*
X9345595Y-9560976D01*
X9336071Y-9551452D01*
X9345595Y-9541929D01*
X9345595Y-9560976D01*
X9469405Y-9446690D02*
X9450357Y-9437167D01*
X9440833Y-9427643D01*
X9431310Y-9408595D01*
X9431310Y-9399071D01*
X9440833Y-9380024D01*
X9450357Y-9370500D01*
X9469405Y-9360976D01*
X9507500Y-9360976D01*
X9526548Y-9370500D01*
X9536071Y-9380024D01*
X9545595Y-9399071D01*
X9545595Y-9408595D01*
X9536071Y-9427643D01*
X9526548Y-9437167D01*
X9507500Y-9446690D01*
X9469405Y-9446690D01*
X9450357Y-9456214D01*
X9440833Y-9465738D01*
X9431310Y-9484786D01*
X9431310Y-9522881D01*
X9440833Y-9541929D01*
X9450357Y-9551452D01*
X9469405Y-9560976D01*
X9507500Y-9560976D01*
X9526548Y-9551452D01*
X9536071Y-9541929D01*
X9545595Y-9522881D01*
X9545595Y-9484786D01*
X9536071Y-9465738D01*
X9526548Y-9456214D01*
X9507500Y-9446690D01*
X9669405Y-9360976D02*
X9688452Y-9360976D01*
X9707500Y-9370500D01*
X9717024Y-9380024D01*
X9726548Y-9399071D01*
X9736071Y-9437167D01*
X9736071Y-9484786D01*
X9726548Y-9522881D01*
X9717024Y-9541929D01*
X9707500Y-9551452D01*
X9688452Y-9560976D01*
X9669405Y-9560976D01*
X9650357Y-9551452D01*
X9640833Y-9541929D01*
X9631310Y-9522881D01*
X9621786Y-9484786D01*
X9621786Y-9437167D01*
X9631310Y-9399071D01*
X9640833Y-9380024D01*
X9650357Y-9370500D01*
X9669405Y-9360976D01*
X9859881Y-9360976D02*
X9878929Y-9360976D01*
X9897976Y-9370500D01*
X9907500Y-9380024D01*
X9917024Y-9399071D01*
X9926548Y-9437167D01*
X9926548Y-9484786D01*
X9917024Y-9522881D01*
X9907500Y-9541929D01*
X9897976Y-9551452D01*
X9878929Y-9560976D01*
X9859881Y-9560976D01*
X9840833Y-9551452D01*
X9831310Y-9541929D01*
X9821786Y-9522881D01*
X9812262Y-9484786D01*
X9812262Y-9437167D01*
X9821786Y-9399071D01*
X9831310Y-9380024D01*
X9840833Y-9370500D01*
X9859881Y-9360976D01*
X10012262Y-9560976D02*
X10012262Y-9427643D01*
X10012262Y-9446690D02*
X10021786Y-9437167D01*
X10040833Y-9427643D01*
X10069405Y-9427643D01*
X10088452Y-9437167D01*
X10097976Y-9456214D01*
X10097976Y-9560976D01*
X10097976Y-9456214D02*
X10107500Y-9437167D01*
X10126548Y-9427643D01*
X10155119Y-9427643D01*
X10174167Y-9437167D01*
X10183690Y-9456214D01*
X10183690Y-9560976D01*
X10278929Y-9560976D02*
X10278929Y-9427643D01*
X10278929Y-9446690D02*
X10288452Y-9437167D01*
X10307500Y-9427643D01*
X10336071Y-9427643D01*
X10355119Y-9437167D01*
X10364643Y-9456214D01*
X10364643Y-9560976D01*
X10364643Y-9456214D02*
X10374167Y-9437167D01*
X10393214Y-9427643D01*
X10421786Y-9427643D01*
X10440833Y-9437167D01*
X10450357Y-9456214D01*
X10450357Y-9560976D01*
X10840833Y-9351452D02*
X10669405Y-9608595D01*
X11097976Y-9360976D02*
X11117024Y-9360976D01*
X11136071Y-9370500D01*
X11145595Y-9380024D01*
X11155119Y-9399071D01*
X11164643Y-9437167D01*
X11164643Y-9484786D01*
X11155119Y-9522881D01*
X11145595Y-9541929D01*
X11136071Y-9551452D01*
X11117024Y-9560976D01*
X11097976Y-9560976D01*
X11078929Y-9551452D01*
X11069405Y-9541929D01*
X11059881Y-9522881D01*
X11050357Y-9484786D01*
X11050357Y-9437167D01*
X11059881Y-9399071D01*
X11069405Y-9380024D01*
X11078929Y-9370500D01*
X11097976Y-9360976D01*
X11250357Y-9541929D02*
X11259881Y-9551452D01*
X11250357Y-9560976D01*
X11240833Y-9551452D01*
X11250357Y-9541929D01*
X11250357Y-9560976D01*
X11383690Y-9360976D02*
X11402738Y-9360976D01*
X11421786Y-9370500D01*
X11431309Y-9380024D01*
X11440833Y-9399071D01*
X11450357Y-9437167D01*
X11450357Y-9484786D01*
X11440833Y-9522881D01*
X11431309Y-9541929D01*
X11421786Y-9551452D01*
X11402738Y-9560976D01*
X11383690Y-9560976D01*
X11364643Y-9551452D01*
X11355119Y-9541929D01*
X11345595Y-9522881D01*
X11336071Y-9484786D01*
X11336071Y-9437167D01*
X11345595Y-9399071D01*
X11355119Y-9380024D01*
X11364643Y-9370500D01*
X11383690Y-9360976D01*
X11517024Y-9360976D02*
X11640833Y-9360976D01*
X11574167Y-9437167D01*
X11602738Y-9437167D01*
X11621786Y-9446690D01*
X11631309Y-9456214D01*
X11640833Y-9475262D01*
X11640833Y-9522881D01*
X11631309Y-9541929D01*
X11621786Y-9551452D01*
X11602738Y-9560976D01*
X11545595Y-9560976D01*
X11526548Y-9551452D01*
X11517024Y-9541929D01*
X11831309Y-9560976D02*
X11717024Y-9560976D01*
X11774167Y-9560976D02*
X11774167Y-9360976D01*
X11755119Y-9389548D01*
X11736071Y-9408595D01*
X11717024Y-9418119D01*
X12012262Y-9360976D02*
X11917024Y-9360976D01*
X11907500Y-9456214D01*
X11917024Y-9446690D01*
X11936071Y-9437167D01*
X11983690Y-9437167D01*
X12002738Y-9446690D01*
X12012262Y-9456214D01*
X12021786Y-9475262D01*
X12021786Y-9522881D01*
X12012262Y-9541929D01*
X12002738Y-9551452D01*
X11983690Y-9560976D01*
X11936071Y-9560976D01*
X11917024Y-9551452D01*
X11907500Y-9541929D01*
X12097976Y-9360976D02*
X12097976Y-9399071D01*
X12174167Y-9360976D02*
X12174167Y-9399071D01*
X12469405Y-9637167D02*
X12459881Y-9627643D01*
X12440833Y-9599071D01*
X12431309Y-9580024D01*
X12421786Y-9551452D01*
X12412262Y-9503833D01*
X12412262Y-9465738D01*
X12421786Y-9418119D01*
X12431309Y-9389548D01*
X12440833Y-9370500D01*
X12459881Y-9341929D01*
X12469405Y-9332405D01*
X12631309Y-9427643D02*
X12631309Y-9560976D01*
X12583690Y-9351452D02*
X12536071Y-9494310D01*
X12659881Y-9494310D01*
X12774167Y-9360976D02*
X12793214Y-9360976D01*
X12812262Y-9370500D01*
X12821786Y-9380024D01*
X12831309Y-9399071D01*
X12840833Y-9437167D01*
X12840833Y-9484786D01*
X12831309Y-9522881D01*
X12821786Y-9541929D01*
X12812262Y-9551452D01*
X12793214Y-9560976D01*
X12774167Y-9560976D01*
X12755119Y-9551452D01*
X12745595Y-9541929D01*
X12736071Y-9522881D01*
X12726548Y-9484786D01*
X12726548Y-9437167D01*
X12736071Y-9399071D01*
X12745595Y-9380024D01*
X12755119Y-9370500D01*
X12774167Y-9360976D01*
X13078928Y-9560976D02*
X13078928Y-9360976D01*
X13164643Y-9560976D02*
X13164643Y-9456214D01*
X13155119Y-9437167D01*
X13136071Y-9427643D01*
X13107500Y-9427643D01*
X13088452Y-9437167D01*
X13078928Y-9446690D01*
X13288452Y-9560976D02*
X13269405Y-9551452D01*
X13259881Y-9541929D01*
X13250357Y-9522881D01*
X13250357Y-9465738D01*
X13259881Y-9446690D01*
X13269405Y-9437167D01*
X13288452Y-9427643D01*
X13317024Y-9427643D01*
X13336071Y-9437167D01*
X13345595Y-9446690D01*
X13355119Y-9465738D01*
X13355119Y-9522881D01*
X13345595Y-9541929D01*
X13336071Y-9551452D01*
X13317024Y-9560976D01*
X13288452Y-9560976D01*
X13469405Y-9560976D02*
X13450357Y-9551452D01*
X13440833Y-9532405D01*
X13440833Y-9360976D01*
X13621786Y-9551452D02*
X13602738Y-9560976D01*
X13564643Y-9560976D01*
X13545595Y-9551452D01*
X13536071Y-9532405D01*
X13536071Y-9456214D01*
X13545595Y-9437167D01*
X13564643Y-9427643D01*
X13602738Y-9427643D01*
X13621786Y-9437167D01*
X13631309Y-9456214D01*
X13631309Y-9475262D01*
X13536071Y-9494310D01*
X13707500Y-9551452D02*
X13726548Y-9560976D01*
X13764643Y-9560976D01*
X13783690Y-9551452D01*
X13793214Y-9532405D01*
X13793214Y-9522881D01*
X13783690Y-9503833D01*
X13764643Y-9494310D01*
X13736071Y-9494310D01*
X13717024Y-9484786D01*
X13707500Y-9465738D01*
X13707500Y-9456214D01*
X13717024Y-9437167D01*
X13736071Y-9427643D01*
X13764643Y-9427643D01*
X13783690Y-9437167D01*
X13859881Y-9637167D02*
X13869405Y-9627643D01*
X13888452Y-9599071D01*
X13897976Y-9580024D01*
X13907500Y-9551452D01*
X13917024Y-9503833D01*
X13917024Y-9465738D01*
X13907500Y-9418119D01*
X13897976Y-9389548D01*
X13888452Y-9370500D01*
X13869405Y-9341929D01*
X13859881Y-9332405D01*
D14*
X8884320Y-9766320D02*
X8884320Y-9702680D01*
X8820680Y-9702680D01*
X8820680Y-9766320D01*
X8884320Y-9766320D01*
D11*
X9193214Y-9624976D02*
X9212262Y-9624976D01*
X9231310Y-9634500D01*
X9240833Y-9644024D01*
X9250357Y-9663071D01*
X9259881Y-9701167D01*
X9259881Y-9748786D01*
X9250357Y-9786881D01*
X9240833Y-9805929D01*
X9231310Y-9815452D01*
X9212262Y-9824976D01*
X9193214Y-9824976D01*
X9174167Y-9815452D01*
X9164643Y-9805929D01*
X9155119Y-9786881D01*
X9145595Y-9748786D01*
X9145595Y-9701167D01*
X9155119Y-9663071D01*
X9164643Y-9644024D01*
X9174167Y-9634500D01*
X9193214Y-9624976D01*
X9345595Y-9805929D02*
X9355119Y-9815452D01*
X9345595Y-9824976D01*
X9336071Y-9815452D01*
X9345595Y-9805929D01*
X9345595Y-9824976D01*
X9450357Y-9824976D02*
X9488452Y-9824976D01*
X9507500Y-9815452D01*
X9517024Y-9805929D01*
X9536071Y-9777357D01*
X9545595Y-9739262D01*
X9545595Y-9663071D01*
X9536071Y-9644024D01*
X9526548Y-9634500D01*
X9507500Y-9624976D01*
X9469405Y-9624976D01*
X9450357Y-9634500D01*
X9440833Y-9644024D01*
X9431310Y-9663071D01*
X9431310Y-9710690D01*
X9440833Y-9729738D01*
X9450357Y-9739262D01*
X9469405Y-9748786D01*
X9507500Y-9748786D01*
X9526548Y-9739262D01*
X9536071Y-9729738D01*
X9545595Y-9710690D01*
X9669405Y-9624976D02*
X9688452Y-9624976D01*
X9707500Y-9634500D01*
X9717024Y-9644024D01*
X9726548Y-9663071D01*
X9736071Y-9701167D01*
X9736071Y-9748786D01*
X9726548Y-9786881D01*
X9717024Y-9805929D01*
X9707500Y-9815452D01*
X9688452Y-9824976D01*
X9669405Y-9824976D01*
X9650357Y-9815452D01*
X9640833Y-9805929D01*
X9631310Y-9786881D01*
X9621786Y-9748786D01*
X9621786Y-9701167D01*
X9631310Y-9663071D01*
X9640833Y-9644024D01*
X9650357Y-9634500D01*
X9669405Y-9624976D01*
X9859881Y-9624976D02*
X9878929Y-9624976D01*
X9897976Y-9634500D01*
X9907500Y-9644024D01*
X9917024Y-9663071D01*
X9926548Y-9701167D01*
X9926548Y-9748786D01*
X9917024Y-9786881D01*
X9907500Y-9805929D01*
X9897976Y-9815452D01*
X9878929Y-9824976D01*
X9859881Y-9824976D01*
X9840833Y-9815452D01*
X9831310Y-9805929D01*
X9821786Y-9786881D01*
X9812262Y-9748786D01*
X9812262Y-9701167D01*
X9821786Y-9663071D01*
X9831310Y-9644024D01*
X9840833Y-9634500D01*
X9859881Y-9624976D01*
X10012262Y-9824976D02*
X10012262Y-9691643D01*
X10012262Y-9710690D02*
X10021786Y-9701167D01*
X10040833Y-9691643D01*
X10069405Y-9691643D01*
X10088452Y-9701167D01*
X10097976Y-9720214D01*
X10097976Y-9824976D01*
X10097976Y-9720214D02*
X10107500Y-9701167D01*
X10126548Y-9691643D01*
X10155119Y-9691643D01*
X10174167Y-9701167D01*
X10183690Y-9720214D01*
X10183690Y-9824976D01*
X10278929Y-9824976D02*
X10278929Y-9691643D01*
X10278929Y-9710690D02*
X10288452Y-9701167D01*
X10307500Y-9691643D01*
X10336071Y-9691643D01*
X10355119Y-9701167D01*
X10364643Y-9720214D01*
X10364643Y-9824976D01*
X10364643Y-9720214D02*
X10374167Y-9701167D01*
X10393214Y-9691643D01*
X10421786Y-9691643D01*
X10440833Y-9701167D01*
X10450357Y-9720214D01*
X10450357Y-9824976D01*
X10840833Y-9615452D02*
X10669405Y-9872595D01*
X11097976Y-9624976D02*
X11117024Y-9624976D01*
X11136071Y-9634500D01*
X11145595Y-9644024D01*
X11155119Y-9663071D01*
X11164643Y-9701167D01*
X11164643Y-9748786D01*
X11155119Y-9786881D01*
X11145595Y-9805929D01*
X11136071Y-9815452D01*
X11117024Y-9824976D01*
X11097976Y-9824976D01*
X11078929Y-9815452D01*
X11069405Y-9805929D01*
X11059881Y-9786881D01*
X11050357Y-9748786D01*
X11050357Y-9701167D01*
X11059881Y-9663071D01*
X11069405Y-9644024D01*
X11078929Y-9634500D01*
X11097976Y-9624976D01*
X11250357Y-9805929D02*
X11259881Y-9815452D01*
X11250357Y-9824976D01*
X11240833Y-9815452D01*
X11250357Y-9805929D01*
X11250357Y-9824976D01*
X11383690Y-9624976D02*
X11402738Y-9624976D01*
X11421786Y-9634500D01*
X11431309Y-9644024D01*
X11440833Y-9663071D01*
X11450357Y-9701167D01*
X11450357Y-9748786D01*
X11440833Y-9786881D01*
X11431309Y-9805929D01*
X11421786Y-9815452D01*
X11402738Y-9824976D01*
X11383690Y-9824976D01*
X11364643Y-9815452D01*
X11355119Y-9805929D01*
X11345595Y-9786881D01*
X11336071Y-9748786D01*
X11336071Y-9701167D01*
X11345595Y-9663071D01*
X11355119Y-9644024D01*
X11364643Y-9634500D01*
X11383690Y-9624976D01*
X11517024Y-9624976D02*
X11640833Y-9624976D01*
X11574167Y-9701167D01*
X11602738Y-9701167D01*
X11621786Y-9710690D01*
X11631309Y-9720214D01*
X11640833Y-9739262D01*
X11640833Y-9786881D01*
X11631309Y-9805929D01*
X11621786Y-9815452D01*
X11602738Y-9824976D01*
X11545595Y-9824976D01*
X11526548Y-9815452D01*
X11517024Y-9805929D01*
X11821786Y-9624976D02*
X11726548Y-9624976D01*
X11717024Y-9720214D01*
X11726548Y-9710690D01*
X11745595Y-9701167D01*
X11793214Y-9701167D01*
X11812262Y-9710690D01*
X11821786Y-9720214D01*
X11831309Y-9739262D01*
X11831309Y-9786881D01*
X11821786Y-9805929D01*
X11812262Y-9815452D01*
X11793214Y-9824976D01*
X11745595Y-9824976D01*
X11726548Y-9815452D01*
X11717024Y-9805929D01*
X12002738Y-9691643D02*
X12002738Y-9824976D01*
X11955119Y-9615452D02*
X11907500Y-9758310D01*
X12031309Y-9758310D01*
X12097976Y-9624976D02*
X12097976Y-9663071D01*
X12174167Y-9624976D02*
X12174167Y-9663071D01*
X12469405Y-9901167D02*
X12459881Y-9891643D01*
X12440833Y-9863071D01*
X12431309Y-9844024D01*
X12421786Y-9815452D01*
X12412262Y-9767833D01*
X12412262Y-9729738D01*
X12421786Y-9682119D01*
X12431309Y-9653548D01*
X12440833Y-9634500D01*
X12459881Y-9605929D01*
X12469405Y-9596405D01*
X12650357Y-9824976D02*
X12536071Y-9824976D01*
X12593214Y-9824976D02*
X12593214Y-9624976D01*
X12574167Y-9653548D01*
X12555119Y-9672595D01*
X12536071Y-9682119D01*
X12726548Y-9644024D02*
X12736071Y-9634500D01*
X12755119Y-9624976D01*
X12802738Y-9624976D01*
X12821786Y-9634500D01*
X12831309Y-9644024D01*
X12840833Y-9663071D01*
X12840833Y-9682119D01*
X12831309Y-9710690D01*
X12717024Y-9824976D01*
X12840833Y-9824976D01*
X13078928Y-9824976D02*
X13078928Y-9624976D01*
X13164643Y-9824976D02*
X13164643Y-9720214D01*
X13155119Y-9701167D01*
X13136071Y-9691643D01*
X13107500Y-9691643D01*
X13088452Y-9701167D01*
X13078928Y-9710690D01*
X13288452Y-9824976D02*
X13269405Y-9815452D01*
X13259881Y-9805929D01*
X13250357Y-9786881D01*
X13250357Y-9729738D01*
X13259881Y-9710690D01*
X13269405Y-9701167D01*
X13288452Y-9691643D01*
X13317024Y-9691643D01*
X13336071Y-9701167D01*
X13345595Y-9710690D01*
X13355119Y-9729738D01*
X13355119Y-9786881D01*
X13345595Y-9805929D01*
X13336071Y-9815452D01*
X13317024Y-9824976D01*
X13288452Y-9824976D01*
X13469405Y-9824976D02*
X13450357Y-9815452D01*
X13440833Y-9796405D01*
X13440833Y-9624976D01*
X13621786Y-9815452D02*
X13602738Y-9824976D01*
X13564643Y-9824976D01*
X13545595Y-9815452D01*
X13536071Y-9796405D01*
X13536071Y-9720214D01*
X13545595Y-9701167D01*
X13564643Y-9691643D01*
X13602738Y-9691643D01*
X13621786Y-9701167D01*
X13631309Y-9720214D01*
X13631309Y-9739262D01*
X13536071Y-9758310D01*
X13707500Y-9815452D02*
X13726548Y-9824976D01*
X13764643Y-9824976D01*
X13783690Y-9815452D01*
X13793214Y-9796405D01*
X13793214Y-9786881D01*
X13783690Y-9767833D01*
X13764643Y-9758310D01*
X13736071Y-9758310D01*
X13717024Y-9748786D01*
X13707500Y-9729738D01*
X13707500Y-9720214D01*
X13717024Y-9701167D01*
X13736071Y-9691643D01*
X13764643Y-9691643D01*
X13783690Y-9701167D01*
X13859881Y-9901167D02*
X13869405Y-9891643D01*
X13888452Y-9863071D01*
X13897976Y-9844024D01*
X13907500Y-9815452D01*
X13917024Y-9767833D01*
X13917024Y-9729738D01*
X13907500Y-9682119D01*
X13897976Y-9653548D01*
X13888452Y-9634500D01*
X13869405Y-9605929D01*
X13859881Y-9596405D01*
D15*
X8847500Y-10048500D02*
X8897500Y-9998500D01*
X8847500Y-9948500D01*
X8797500Y-9998500D01*
X8847500Y-10048500D01*
D11*
X9259881Y-10088976D02*
X9145595Y-10088976D01*
X9202738Y-10088976D02*
X9202738Y-9888976D01*
X9183690Y-9917548D01*
X9164643Y-9936595D01*
X9145595Y-9946119D01*
X9345595Y-10069929D02*
X9355119Y-10079452D01*
X9345595Y-10088976D01*
X9336071Y-10079452D01*
X9345595Y-10069929D01*
X9345595Y-10088976D01*
X9478929Y-9888976D02*
X9497976Y-9888976D01*
X9517024Y-9898500D01*
X9526548Y-9908024D01*
X9536071Y-9927071D01*
X9545595Y-9965167D01*
X9545595Y-10012786D01*
X9536071Y-10050881D01*
X9526548Y-10069929D01*
X9517024Y-10079452D01*
X9497976Y-10088976D01*
X9478929Y-10088976D01*
X9459881Y-10079452D01*
X9450357Y-10069929D01*
X9440833Y-10050881D01*
X9431310Y-10012786D01*
X9431310Y-9965167D01*
X9440833Y-9927071D01*
X9450357Y-9908024D01*
X9459881Y-9898500D01*
X9478929Y-9888976D01*
X9669405Y-9888976D02*
X9688452Y-9888976D01*
X9707500Y-9898500D01*
X9717024Y-9908024D01*
X9726548Y-9927071D01*
X9736071Y-9965167D01*
X9736071Y-10012786D01*
X9726548Y-10050881D01*
X9717024Y-10069929D01*
X9707500Y-10079452D01*
X9688452Y-10088976D01*
X9669405Y-10088976D01*
X9650357Y-10079452D01*
X9640833Y-10069929D01*
X9631310Y-10050881D01*
X9621786Y-10012786D01*
X9621786Y-9965167D01*
X9631310Y-9927071D01*
X9640833Y-9908024D01*
X9650357Y-9898500D01*
X9669405Y-9888976D01*
X9859881Y-9888976D02*
X9878929Y-9888976D01*
X9897976Y-9898500D01*
X9907500Y-9908024D01*
X9917024Y-9927071D01*
X9926548Y-9965167D01*
X9926548Y-10012786D01*
X9917024Y-10050881D01*
X9907500Y-10069929D01*
X9897976Y-10079452D01*
X9878929Y-10088976D01*
X9859881Y-10088976D01*
X9840833Y-10079452D01*
X9831310Y-10069929D01*
X9821786Y-10050881D01*
X9812262Y-10012786D01*
X9812262Y-9965167D01*
X9821786Y-9927071D01*
X9831310Y-9908024D01*
X9840833Y-9898500D01*
X9859881Y-9888976D01*
X10012262Y-10088976D02*
X10012262Y-9955643D01*
X10012262Y-9974690D02*
X10021786Y-9965167D01*
X10040833Y-9955643D01*
X10069405Y-9955643D01*
X10088452Y-9965167D01*
X10097976Y-9984214D01*
X10097976Y-10088976D01*
X10097976Y-9984214D02*
X10107500Y-9965167D01*
X10126548Y-9955643D01*
X10155119Y-9955643D01*
X10174167Y-9965167D01*
X10183690Y-9984214D01*
X10183690Y-10088976D01*
X10278929Y-10088976D02*
X10278929Y-9955643D01*
X10278929Y-9974690D02*
X10288452Y-9965167D01*
X10307500Y-9955643D01*
X10336071Y-9955643D01*
X10355119Y-9965167D01*
X10364643Y-9984214D01*
X10364643Y-10088976D01*
X10364643Y-9984214D02*
X10374167Y-9965167D01*
X10393214Y-9955643D01*
X10421786Y-9955643D01*
X10440833Y-9965167D01*
X10450357Y-9984214D01*
X10450357Y-10088976D01*
X10840833Y-9879452D02*
X10669405Y-10136595D01*
X11097976Y-9888976D02*
X11117024Y-9888976D01*
X11136071Y-9898500D01*
X11145595Y-9908024D01*
X11155119Y-9927071D01*
X11164643Y-9965167D01*
X11164643Y-10012786D01*
X11155119Y-10050881D01*
X11145595Y-10069929D01*
X11136071Y-10079452D01*
X11117024Y-10088976D01*
X11097976Y-10088976D01*
X11078929Y-10079452D01*
X11069405Y-10069929D01*
X11059881Y-10050881D01*
X11050357Y-10012786D01*
X11050357Y-9965167D01*
X11059881Y-9927071D01*
X11069405Y-9908024D01*
X11078929Y-9898500D01*
X11097976Y-9888976D01*
X11250357Y-10069929D02*
X11259881Y-10079452D01*
X11250357Y-10088976D01*
X11240833Y-10079452D01*
X11250357Y-10069929D01*
X11250357Y-10088976D01*
X11383690Y-9888976D02*
X11402738Y-9888976D01*
X11421786Y-9898500D01*
X11431309Y-9908024D01*
X11440833Y-9927071D01*
X11450357Y-9965167D01*
X11450357Y-10012786D01*
X11440833Y-10050881D01*
X11431309Y-10069929D01*
X11421786Y-10079452D01*
X11402738Y-10088976D01*
X11383690Y-10088976D01*
X11364643Y-10079452D01*
X11355119Y-10069929D01*
X11345595Y-10050881D01*
X11336071Y-10012786D01*
X11336071Y-9965167D01*
X11345595Y-9927071D01*
X11355119Y-9908024D01*
X11364643Y-9898500D01*
X11383690Y-9888976D01*
X11517024Y-9888976D02*
X11640833Y-9888976D01*
X11574167Y-9965167D01*
X11602738Y-9965167D01*
X11621786Y-9974690D01*
X11631309Y-9984214D01*
X11640833Y-10003262D01*
X11640833Y-10050881D01*
X11631309Y-10069929D01*
X11621786Y-10079452D01*
X11602738Y-10088976D01*
X11545595Y-10088976D01*
X11526548Y-10079452D01*
X11517024Y-10069929D01*
X11736071Y-10088976D02*
X11774167Y-10088976D01*
X11793214Y-10079452D01*
X11802738Y-10069929D01*
X11821786Y-10041357D01*
X11831309Y-10003262D01*
X11831309Y-9927071D01*
X11821786Y-9908024D01*
X11812262Y-9898500D01*
X11793214Y-9888976D01*
X11755119Y-9888976D01*
X11736071Y-9898500D01*
X11726548Y-9908024D01*
X11717024Y-9927071D01*
X11717024Y-9974690D01*
X11726548Y-9993738D01*
X11736071Y-10003262D01*
X11755119Y-10012786D01*
X11793214Y-10012786D01*
X11812262Y-10003262D01*
X11821786Y-9993738D01*
X11831309Y-9974690D01*
X12002738Y-9955643D02*
X12002738Y-10088976D01*
X11955119Y-9879452D02*
X11907500Y-10022310D01*
X12031309Y-10022310D01*
X12097976Y-9888976D02*
X12097976Y-9927071D01*
X12174167Y-9888976D02*
X12174167Y-9927071D01*
X12469405Y-10165167D02*
X12459881Y-10155643D01*
X12440833Y-10127071D01*
X12431309Y-10108024D01*
X12421786Y-10079452D01*
X12412262Y-10031833D01*
X12412262Y-9993738D01*
X12421786Y-9946119D01*
X12431309Y-9917548D01*
X12440833Y-9898500D01*
X12459881Y-9869929D01*
X12469405Y-9860405D01*
X12650357Y-10088976D02*
X12536071Y-10088976D01*
X12593214Y-10088976D02*
X12593214Y-9888976D01*
X12574167Y-9917548D01*
X12555119Y-9936595D01*
X12536071Y-9946119D01*
X12821786Y-9955643D02*
X12821786Y-10088976D01*
X12774167Y-9879452D02*
X12726548Y-10022310D01*
X12850357Y-10022310D01*
X13078928Y-10088976D02*
X13078928Y-9888976D01*
X13164643Y-10088976D02*
X13164643Y-9984214D01*
X13155119Y-9965167D01*
X13136071Y-9955643D01*
X13107500Y-9955643D01*
X13088452Y-9965167D01*
X13078928Y-9974690D01*
X13288452Y-10088976D02*
X13269405Y-10079452D01*
X13259881Y-10069929D01*
X13250357Y-10050881D01*
X13250357Y-9993738D01*
X13259881Y-9974690D01*
X13269405Y-9965167D01*
X13288452Y-9955643D01*
X13317024Y-9955643D01*
X13336071Y-9965167D01*
X13345595Y-9974690D01*
X13355119Y-9993738D01*
X13355119Y-10050881D01*
X13345595Y-10069929D01*
X13336071Y-10079452D01*
X13317024Y-10088976D01*
X13288452Y-10088976D01*
X13469405Y-10088976D02*
X13450357Y-10079452D01*
X13440833Y-10060405D01*
X13440833Y-9888976D01*
X13621786Y-10079452D02*
X13602738Y-10088976D01*
X13564643Y-10088976D01*
X13545595Y-10079452D01*
X13536071Y-10060405D01*
X13536071Y-9984214D01*
X13545595Y-9965167D01*
X13564643Y-9955643D01*
X13602738Y-9955643D01*
X13621786Y-9965167D01*
X13631309Y-9984214D01*
X13631309Y-10003262D01*
X13536071Y-10022310D01*
X13707500Y-10079452D02*
X13726548Y-10088976D01*
X13764643Y-10088976D01*
X13783690Y-10079452D01*
X13793214Y-10060405D01*
X13793214Y-10050881D01*
X13783690Y-10031833D01*
X13764643Y-10022310D01*
X13736071Y-10022310D01*
X13717024Y-10012786D01*
X13707500Y-9993738D01*
X13707500Y-9984214D01*
X13717024Y-9965167D01*
X13736071Y-9955643D01*
X13764643Y-9955643D01*
X13783690Y-9965167D01*
X13859881Y-10165167D02*
X13869405Y-10155643D01*
X13888452Y-10127071D01*
X13897976Y-10108024D01*
X13907500Y-10079452D01*
X13917024Y-10031833D01*
X13917024Y-9993738D01*
X13907500Y-9946119D01*
X13897976Y-9917548D01*
X13888452Y-9898500D01*
X13869405Y-9869929D01*
X13859881Y-9860405D01*
D16*
X8787500Y-10207500D02*
X8897500Y-10317500D01*
X8897500Y-10207500D02*
X8787500Y-10317500D01*
X8897500Y-10262500D02*
G75*
G03*
X8897500Y-10262500I-55000J0D01*
G01*
D11*
X9259881Y-10352976D02*
X9145595Y-10352976D01*
X9202738Y-10352976D02*
X9202738Y-10152976D01*
X9183690Y-10181548D01*
X9164643Y-10200595D01*
X9145595Y-10210119D01*
X9345595Y-10333929D02*
X9355119Y-10343452D01*
X9345595Y-10352976D01*
X9336071Y-10343452D01*
X9345595Y-10333929D01*
X9345595Y-10352976D01*
X9545595Y-10352976D02*
X9431310Y-10352976D01*
X9488452Y-10352976D02*
X9488452Y-10152976D01*
X9469405Y-10181548D01*
X9450357Y-10200595D01*
X9431310Y-10210119D01*
X9669405Y-10152976D02*
X9688452Y-10152976D01*
X9707500Y-10162500D01*
X9717024Y-10172024D01*
X9726548Y-10191071D01*
X9736071Y-10229167D01*
X9736071Y-10276786D01*
X9726548Y-10314881D01*
X9717024Y-10333929D01*
X9707500Y-10343452D01*
X9688452Y-10352976D01*
X9669405Y-10352976D01*
X9650357Y-10343452D01*
X9640833Y-10333929D01*
X9631310Y-10314881D01*
X9621786Y-10276786D01*
X9621786Y-10229167D01*
X9631310Y-10191071D01*
X9640833Y-10172024D01*
X9650357Y-10162500D01*
X9669405Y-10152976D01*
X9859881Y-10152976D02*
X9878929Y-10152976D01*
X9897976Y-10162500D01*
X9907500Y-10172024D01*
X9917024Y-10191071D01*
X9926548Y-10229167D01*
X9926548Y-10276786D01*
X9917024Y-10314881D01*
X9907500Y-10333929D01*
X9897976Y-10343452D01*
X9878929Y-10352976D01*
X9859881Y-10352976D01*
X9840833Y-10343452D01*
X9831310Y-10333929D01*
X9821786Y-10314881D01*
X9812262Y-10276786D01*
X9812262Y-10229167D01*
X9821786Y-10191071D01*
X9831310Y-10172024D01*
X9840833Y-10162500D01*
X9859881Y-10152976D01*
X10012262Y-10352976D02*
X10012262Y-10219643D01*
X10012262Y-10238690D02*
X10021786Y-10229167D01*
X10040833Y-10219643D01*
X10069405Y-10219643D01*
X10088452Y-10229167D01*
X10097976Y-10248214D01*
X10097976Y-10352976D01*
X10097976Y-10248214D02*
X10107500Y-10229167D01*
X10126548Y-10219643D01*
X10155119Y-10219643D01*
X10174167Y-10229167D01*
X10183690Y-10248214D01*
X10183690Y-10352976D01*
X10278929Y-10352976D02*
X10278929Y-10219643D01*
X10278929Y-10238690D02*
X10288452Y-10229167D01*
X10307500Y-10219643D01*
X10336071Y-10219643D01*
X10355119Y-10229167D01*
X10364643Y-10248214D01*
X10364643Y-10352976D01*
X10364643Y-10248214D02*
X10374167Y-10229167D01*
X10393214Y-10219643D01*
X10421786Y-10219643D01*
X10440833Y-10229167D01*
X10450357Y-10248214D01*
X10450357Y-10352976D01*
X10840833Y-10143452D02*
X10669405Y-10400595D01*
X11097976Y-10152976D02*
X11117024Y-10152976D01*
X11136071Y-10162500D01*
X11145595Y-10172024D01*
X11155119Y-10191071D01*
X11164643Y-10229167D01*
X11164643Y-10276786D01*
X11155119Y-10314881D01*
X11145595Y-10333929D01*
X11136071Y-10343452D01*
X11117024Y-10352976D01*
X11097976Y-10352976D01*
X11078929Y-10343452D01*
X11069405Y-10333929D01*
X11059881Y-10314881D01*
X11050357Y-10276786D01*
X11050357Y-10229167D01*
X11059881Y-10191071D01*
X11069405Y-10172024D01*
X11078929Y-10162500D01*
X11097976Y-10152976D01*
X11250357Y-10333929D02*
X11259881Y-10343452D01*
X11250357Y-10352976D01*
X11240833Y-10343452D01*
X11250357Y-10333929D01*
X11250357Y-10352976D01*
X11383690Y-10152976D02*
X11402738Y-10152976D01*
X11421786Y-10162500D01*
X11431309Y-10172024D01*
X11440833Y-10191071D01*
X11450357Y-10229167D01*
X11450357Y-10276786D01*
X11440833Y-10314881D01*
X11431309Y-10333929D01*
X11421786Y-10343452D01*
X11402738Y-10352976D01*
X11383690Y-10352976D01*
X11364643Y-10343452D01*
X11355119Y-10333929D01*
X11345595Y-10314881D01*
X11336071Y-10276786D01*
X11336071Y-10229167D01*
X11345595Y-10191071D01*
X11355119Y-10172024D01*
X11364643Y-10162500D01*
X11383690Y-10152976D01*
X11621786Y-10219643D02*
X11621786Y-10352976D01*
X11574167Y-10143452D02*
X11526548Y-10286310D01*
X11650357Y-10286310D01*
X11707500Y-10152976D02*
X11831309Y-10152976D01*
X11764643Y-10229167D01*
X11793214Y-10229167D01*
X11812262Y-10238690D01*
X11821786Y-10248214D01*
X11831309Y-10267262D01*
X11831309Y-10314881D01*
X11821786Y-10333929D01*
X11812262Y-10343452D01*
X11793214Y-10352976D01*
X11736071Y-10352976D01*
X11717024Y-10343452D01*
X11707500Y-10333929D01*
X11897976Y-10152976D02*
X12021786Y-10152976D01*
X11955119Y-10229167D01*
X11983690Y-10229167D01*
X12002738Y-10238690D01*
X12012262Y-10248214D01*
X12021786Y-10267262D01*
X12021786Y-10314881D01*
X12012262Y-10333929D01*
X12002738Y-10343452D01*
X11983690Y-10352976D01*
X11926548Y-10352976D01*
X11907500Y-10343452D01*
X11897976Y-10333929D01*
X12097976Y-10152976D02*
X12097976Y-10191071D01*
X12174167Y-10152976D02*
X12174167Y-10191071D01*
X12469405Y-10429167D02*
X12459881Y-10419643D01*
X12440833Y-10391071D01*
X12431309Y-10372024D01*
X12421786Y-10343452D01*
X12412262Y-10295833D01*
X12412262Y-10257738D01*
X12421786Y-10210119D01*
X12431309Y-10181548D01*
X12440833Y-10162500D01*
X12459881Y-10133929D01*
X12469405Y-10124405D01*
X12650357Y-10352976D02*
X12536071Y-10352976D01*
X12593214Y-10352976D02*
X12593214Y-10152976D01*
X12574167Y-10181548D01*
X12555119Y-10200595D01*
X12536071Y-10210119D01*
X12764643Y-10238690D02*
X12745595Y-10229167D01*
X12736071Y-10219643D01*
X12726548Y-10200595D01*
X12726548Y-10191071D01*
X12736071Y-10172024D01*
X12745595Y-10162500D01*
X12764643Y-10152976D01*
X12802738Y-10152976D01*
X12821786Y-10162500D01*
X12831309Y-10172024D01*
X12840833Y-10191071D01*
X12840833Y-10200595D01*
X12831309Y-10219643D01*
X12821786Y-10229167D01*
X12802738Y-10238690D01*
X12764643Y-10238690D01*
X12745595Y-10248214D01*
X12736071Y-10257738D01*
X12726548Y-10276786D01*
X12726548Y-10314881D01*
X12736071Y-10333929D01*
X12745595Y-10343452D01*
X12764643Y-10352976D01*
X12802738Y-10352976D01*
X12821786Y-10343452D01*
X12831309Y-10333929D01*
X12840833Y-10314881D01*
X12840833Y-10276786D01*
X12831309Y-10257738D01*
X12821786Y-10248214D01*
X12802738Y-10238690D01*
X13078928Y-10352976D02*
X13078928Y-10152976D01*
X13164643Y-10352976D02*
X13164643Y-10248214D01*
X13155119Y-10229167D01*
X13136071Y-10219643D01*
X13107500Y-10219643D01*
X13088452Y-10229167D01*
X13078928Y-10238690D01*
X13288452Y-10352976D02*
X13269405Y-10343452D01*
X13259881Y-10333929D01*
X13250357Y-10314881D01*
X13250357Y-10257738D01*
X13259881Y-10238690D01*
X13269405Y-10229167D01*
X13288452Y-10219643D01*
X13317024Y-10219643D01*
X13336071Y-10229167D01*
X13345595Y-10238690D01*
X13355119Y-10257738D01*
X13355119Y-10314881D01*
X13345595Y-10333929D01*
X13336071Y-10343452D01*
X13317024Y-10352976D01*
X13288452Y-10352976D01*
X13469405Y-10352976D02*
X13450357Y-10343452D01*
X13440833Y-10324405D01*
X13440833Y-10152976D01*
X13621786Y-10343452D02*
X13602738Y-10352976D01*
X13564643Y-10352976D01*
X13545595Y-10343452D01*
X13536071Y-10324405D01*
X13536071Y-10248214D01*
X13545595Y-10229167D01*
X13564643Y-10219643D01*
X13602738Y-10219643D01*
X13621786Y-10229167D01*
X13631309Y-10248214D01*
X13631309Y-10267262D01*
X13536071Y-10286310D01*
X13707500Y-10343452D02*
X13726548Y-10352976D01*
X13764643Y-10352976D01*
X13783690Y-10343452D01*
X13793214Y-10324405D01*
X13793214Y-10314881D01*
X13783690Y-10295833D01*
X13764643Y-10286310D01*
X13736071Y-10286310D01*
X13717024Y-10276786D01*
X13707500Y-10257738D01*
X13707500Y-10248214D01*
X13717024Y-10229167D01*
X13736071Y-10219643D01*
X13764643Y-10219643D01*
X13783690Y-10229167D01*
X13859881Y-10429167D02*
X13869405Y-10419643D01*
X13888452Y-10391071D01*
X13897976Y-10372024D01*
X13907500Y-10343452D01*
X13917024Y-10295833D01*
X13917024Y-10257738D01*
X13907500Y-10210119D01*
X13897976Y-10181548D01*
X13888452Y-10162500D01*
X13869405Y-10133929D01*
X13859881Y-10124405D01*
X8697500Y-10426500D02*
X8897500Y-10626500D01*
X8897500Y-10426500D02*
X8697500Y-10626500D01*
X8797500Y-10426500D02*
X8797500Y-10626500D01*
X8697500Y-10526500D02*
X8897500Y-10526500D01*
X9136071Y-10416976D02*
X9259881Y-10416976D01*
X9193214Y-10493167D01*
X9221786Y-10493167D01*
X9240833Y-10502690D01*
X9250357Y-10512214D01*
X9259881Y-10531262D01*
X9259881Y-10578881D01*
X9250357Y-10597929D01*
X9240833Y-10607452D01*
X9221786Y-10616976D01*
X9164643Y-10616976D01*
X9145595Y-10607452D01*
X9136071Y-10597929D01*
X9345595Y-10597929D02*
X9355119Y-10607452D01*
X9345595Y-10616976D01*
X9336071Y-10607452D01*
X9345595Y-10597929D01*
X9345595Y-10616976D01*
X9478929Y-10416976D02*
X9497976Y-10416976D01*
X9517024Y-10426500D01*
X9526548Y-10436024D01*
X9536071Y-10455071D01*
X9545595Y-10493167D01*
X9545595Y-10540786D01*
X9536071Y-10578881D01*
X9526548Y-10597929D01*
X9517024Y-10607452D01*
X9497976Y-10616976D01*
X9478929Y-10616976D01*
X9459881Y-10607452D01*
X9450357Y-10597929D01*
X9440833Y-10578881D01*
X9431310Y-10540786D01*
X9431310Y-10493167D01*
X9440833Y-10455071D01*
X9450357Y-10436024D01*
X9459881Y-10426500D01*
X9478929Y-10416976D01*
X9669405Y-10416976D02*
X9688452Y-10416976D01*
X9707500Y-10426500D01*
X9717024Y-10436024D01*
X9726548Y-10455071D01*
X9736071Y-10493167D01*
X9736071Y-10540786D01*
X9726548Y-10578881D01*
X9717024Y-10597929D01*
X9707500Y-10607452D01*
X9688452Y-10616976D01*
X9669405Y-10616976D01*
X9650357Y-10607452D01*
X9640833Y-10597929D01*
X9631310Y-10578881D01*
X9621786Y-10540786D01*
X9621786Y-10493167D01*
X9631310Y-10455071D01*
X9640833Y-10436024D01*
X9650357Y-10426500D01*
X9669405Y-10416976D01*
X9859881Y-10416976D02*
X9878929Y-10416976D01*
X9897976Y-10426500D01*
X9907500Y-10436024D01*
X9917024Y-10455071D01*
X9926548Y-10493167D01*
X9926548Y-10540786D01*
X9917024Y-10578881D01*
X9907500Y-10597929D01*
X9897976Y-10607452D01*
X9878929Y-10616976D01*
X9859881Y-10616976D01*
X9840833Y-10607452D01*
X9831310Y-10597929D01*
X9821786Y-10578881D01*
X9812262Y-10540786D01*
X9812262Y-10493167D01*
X9821786Y-10455071D01*
X9831310Y-10436024D01*
X9840833Y-10426500D01*
X9859881Y-10416976D01*
X10012262Y-10616976D02*
X10012262Y-10483643D01*
X10012262Y-10502690D02*
X10021786Y-10493167D01*
X10040833Y-10483643D01*
X10069405Y-10483643D01*
X10088452Y-10493167D01*
X10097976Y-10512214D01*
X10097976Y-10616976D01*
X10097976Y-10512214D02*
X10107500Y-10493167D01*
X10126548Y-10483643D01*
X10155119Y-10483643D01*
X10174167Y-10493167D01*
X10183690Y-10512214D01*
X10183690Y-10616976D01*
X10278929Y-10616976D02*
X10278929Y-10483643D01*
X10278929Y-10502690D02*
X10288452Y-10493167D01*
X10307500Y-10483643D01*
X10336071Y-10483643D01*
X10355119Y-10493167D01*
X10364643Y-10512214D01*
X10364643Y-10616976D01*
X10364643Y-10512214D02*
X10374167Y-10493167D01*
X10393214Y-10483643D01*
X10421786Y-10483643D01*
X10440833Y-10493167D01*
X10450357Y-10512214D01*
X10450357Y-10616976D01*
X10840833Y-10407452D02*
X10669405Y-10664595D01*
X11097976Y-10416976D02*
X11117024Y-10416976D01*
X11136071Y-10426500D01*
X11145595Y-10436024D01*
X11155119Y-10455071D01*
X11164643Y-10493167D01*
X11164643Y-10540786D01*
X11155119Y-10578881D01*
X11145595Y-10597929D01*
X11136071Y-10607452D01*
X11117024Y-10616976D01*
X11097976Y-10616976D01*
X11078929Y-10607452D01*
X11069405Y-10597929D01*
X11059881Y-10578881D01*
X11050357Y-10540786D01*
X11050357Y-10493167D01*
X11059881Y-10455071D01*
X11069405Y-10436024D01*
X11078929Y-10426500D01*
X11097976Y-10416976D01*
X11250357Y-10597929D02*
X11259881Y-10607452D01*
X11250357Y-10616976D01*
X11240833Y-10607452D01*
X11250357Y-10597929D01*
X11250357Y-10616976D01*
X11450357Y-10616976D02*
X11336071Y-10616976D01*
X11393214Y-10616976D02*
X11393214Y-10416976D01*
X11374167Y-10445548D01*
X11355119Y-10464595D01*
X11336071Y-10474119D01*
X11640833Y-10616976D02*
X11526548Y-10616976D01*
X11583690Y-10616976D02*
X11583690Y-10416976D01*
X11564643Y-10445548D01*
X11545595Y-10464595D01*
X11526548Y-10474119D01*
X11755119Y-10502690D02*
X11736071Y-10493167D01*
X11726548Y-10483643D01*
X11717024Y-10464595D01*
X11717024Y-10455071D01*
X11726548Y-10436024D01*
X11736071Y-10426500D01*
X11755119Y-10416976D01*
X11793214Y-10416976D01*
X11812262Y-10426500D01*
X11821786Y-10436024D01*
X11831309Y-10455071D01*
X11831309Y-10464595D01*
X11821786Y-10483643D01*
X11812262Y-10493167D01*
X11793214Y-10502690D01*
X11755119Y-10502690D01*
X11736071Y-10512214D01*
X11726548Y-10521738D01*
X11717024Y-10540786D01*
X11717024Y-10578881D01*
X11726548Y-10597929D01*
X11736071Y-10607452D01*
X11755119Y-10616976D01*
X11793214Y-10616976D01*
X11812262Y-10607452D01*
X11821786Y-10597929D01*
X11831309Y-10578881D01*
X11831309Y-10540786D01*
X11821786Y-10521738D01*
X11812262Y-10512214D01*
X11793214Y-10502690D01*
X12021786Y-10616976D02*
X11907500Y-10616976D01*
X11964643Y-10616976D02*
X11964643Y-10416976D01*
X11945595Y-10445548D01*
X11926548Y-10464595D01*
X11907500Y-10474119D01*
X12097976Y-10416976D02*
X12097976Y-10455071D01*
X12174167Y-10416976D02*
X12174167Y-10455071D01*
X12469405Y-10693167D02*
X12459881Y-10683643D01*
X12440833Y-10655071D01*
X12431309Y-10636024D01*
X12421786Y-10607452D01*
X12412262Y-10559833D01*
X12412262Y-10521738D01*
X12421786Y-10474119D01*
X12431309Y-10445548D01*
X12440833Y-10426500D01*
X12459881Y-10397929D01*
X12469405Y-10388405D01*
X12650357Y-10616976D02*
X12536071Y-10616976D01*
X12593214Y-10616976D02*
X12593214Y-10416976D01*
X12574167Y-10445548D01*
X12555119Y-10464595D01*
X12536071Y-10474119D01*
X12888452Y-10616976D02*
X12888452Y-10416976D01*
X12974167Y-10616976D02*
X12974167Y-10512214D01*
X12964643Y-10493167D01*
X12945595Y-10483643D01*
X12917024Y-10483643D01*
X12897976Y-10493167D01*
X12888452Y-10502690D01*
X13097976Y-10616976D02*
X13078928Y-10607452D01*
X13069405Y-10597929D01*
X13059881Y-10578881D01*
X13059881Y-10521738D01*
X13069405Y-10502690D01*
X13078928Y-10493167D01*
X13097976Y-10483643D01*
X13126548Y-10483643D01*
X13145595Y-10493167D01*
X13155119Y-10502690D01*
X13164643Y-10521738D01*
X13164643Y-10578881D01*
X13155119Y-10597929D01*
X13145595Y-10607452D01*
X13126548Y-10616976D01*
X13097976Y-10616976D01*
X13278928Y-10616976D02*
X13259881Y-10607452D01*
X13250357Y-10588405D01*
X13250357Y-10416976D01*
X13431309Y-10607452D02*
X13412262Y-10616976D01*
X13374167Y-10616976D01*
X13355119Y-10607452D01*
X13345595Y-10588405D01*
X13345595Y-10512214D01*
X13355119Y-10493167D01*
X13374167Y-10483643D01*
X13412262Y-10483643D01*
X13431309Y-10493167D01*
X13440833Y-10512214D01*
X13440833Y-10531262D01*
X13345595Y-10550310D01*
X13507500Y-10693167D02*
X13517024Y-10683643D01*
X13536071Y-10655071D01*
X13545595Y-10636024D01*
X13555119Y-10607452D01*
X13564643Y-10559833D01*
X13564643Y-10521738D01*
X13555119Y-10474119D01*
X13545595Y-10445548D01*
X13536071Y-10426500D01*
X13517024Y-10397929D01*
X13507500Y-10388405D01*
M02*
